<?xml version="1.0" encoding="UTF-8"?><svg id="Ebene_2" xmlns="http://www.w3.org/2000/svg" viewBox="0 0 389.97 113.26"><defs><style>.cls-1{fill:#1d71b8;}.cls-1,.cls-2{stroke-width:0px;}.cls-2{fill:#983554;}</style></defs><g id="Ebene_1-2"><path class="cls-1" d="M1.35,85.75H0V5.79h48.65c-.04,2.12-.09,4.45-.12,6.76l-.12,7.2c-.05,3.03-.1,6.08-.16,8.86-.07,3.8-.15,7.4-.21,10.63-.07,3.23-.15,6.11-.22,8.73-.07,2.61-.14,4.88-.21,6.96-.07,2.08-.15,3.86-.21,5.5-.07,1.64-.15,3.04-.22,4.34-.07,1.29-.14,2.41-.21,3.45-.07,1.03-.14,1.92-.21,2.75-.07.83-.14,1.55-.21,2.22-.07.66-.14,1.25-.21,1.8-.07.54-.14,1.02-.21,1.47-.07.44-.14.84-.21,1.21-.07.37-.13.69-.2,1-.07.3-.13.57-.19.82-.07.26-.13.49-.19.69-.07.21-.13.4-.19.58-.06.17-.12.33-.18.48-.06.15-.12.28-.18.4-.05.12-.11.23-.16.33-.05.1-.1.19-.17.3-.05.09-.1.16-.14.23-.05.07-.1.14-.14.19-.05.07-.1.13-.15.18-.05.06-.1.12-.13.15l-.13.13s-.1.09-.15.12c-.04.04-.09.07-.15.12-.04.02-.07.05-.11.07-.05.04-.1.07-.12.08l-.19.11s-.07.04-.12.07c-.04.02-.07.04-.11.05l-.94.34s-.06.02-.07.02l-.11.03s-.08.02-.1.02l-1.3.2s-.1.01-.16.02h-.07l-.33.02h-.55s-.49,0-.49,0h-.07l-.46-.04s-.06,0-.09-.01l-.31-.04s-.05,0-.07,0h-.07s-.05-.02-.07-.02l-.32-.06-.95-.34s-.04-.02-.07-.04c-.02-.02-.05-.03-.07-.04-.02-.01-.05-.03-.07-.05-.03-.02-.06-.04-.12-.09-.03-.02-.06-.05-.1-.08l-.12-.12s-.06-.07-.1-.12c-.04-.05-.09-.1-.13-.16-.04-.06-.09-.12-.13-.21-.05-.07-.09-.15-.13-.22-.05-.1-.11-.22-.16-.32-.05-.13-.12-.27-.17-.42-.06-.16-.12-.33-.18-.51-.07-.2-.13-.41-.19-.66-.07-.25-.13-.52-.19-.83-.07-.32-.13-.65-.2-1.04-.07-.4-.13-.82-.2-1.32-.07-.5-.14-1.04-.21-1.67-.07-.63-.14-1.32-.21-2.13-.07-.81-.15-1.69-.21-2.71-.07-1.03-.15-2.16-.21-3.46-.07-1.3-.15-2.73-.22-4.34-.07-1.61-.14-3.4-.21-5.3-.05-1.25-.09-2.62-.14-3.99l-.15-4.1c-.05-1.44-.1-2.89-.15-4.13l-.02-.43c-.07-1.74-.13-3.39-.2-4.44-.12-1.84-.25-3.92-2.36-3.85-2.07.02-2.2,1.97-2.32,3.86-.07,1.05-.13,2.71-.2,4.46l-.02.41c-.05,1.27-.1,2.75-.15,4.21l-.13,3.63c-.05,1.5-.1,3.02-.16,4.4-.07,1.89-.14,3.7-.21,5.31-.07,1.61-.14,3.05-.21,4.35-.07,1.3-.15,2.44-.21,3.46-.07,1.03-.15,1.92-.21,2.73-.07.81-.14,1.5-.21,2.14-.07.63-.14,1.18-.21,1.68-.07.5-.13.93-.21,1.33-.07.4-.13.74-.2,1.05-.06.31-.13.59-.19.84-.07.25-.13.47-.19.68-.06.19-.12.37-.18.52-.05.16-.12.3-.18.43-.05.12-.1.23-.15.32-.04.09-.09.18-.15.29-.05.07-.09.15-.13.19-.04.07-.09.12-.14.19-.05.06-.09.11-.12.15-.04.05-.09.09-.12.12-.04.04-.09.08-.12.11-.04.03-.07.06-.13.1-.04.03-.07.05-.12.09-.04.02-.07.04-.1.07l-.18.1-.66.28s-.06.02-.08.03l-2.7.52s-.05,0-.07,0l-.17.02c-.06,0-.12.01-.18.02-.08.01-.16.02-.25.02l-1.58.13s-.08,0-.12,0h-.14c-.07.01-.15.02-.23.02-.07,0-.14,0-.18,0l-.4.02h-.07l-.81.04s-.06,0-.09,0h-.32s-.07.01-.07.01l-1.01.04c-.09,0-.18,0-.29.01h-.07s-.07,0-.09,0h-.23c-.08,0-.16,0-.23.01h-.34s-.05,0-.07.01l-1,.02h-.46s-.22.01-.22.01h-.38s-.07,0-.09.01l-1.44.02h-.43s-.07,0-.07,0h-.58s-.09,0-.09,0h-.13s-.26,0-.26,0h-.6s-.25.01-.25.01h-.83s-.07.01-.11.01h-1.18s-.07.01-.07.01h-.79s-.07,0-.07,0h-1c-.09,0-.18,0-.22.01h-.65s-.05,0-.09,0Z"/><path class="cls-1" d="M89.07,5.79v79.77c-.09,0-.18,0-.25-.01l-.62-.02h-.08l-.32-.02h-.4s-.1-.02-.13-.02l-.77-.04h-.07l-.35-.02c-.07,0-.15-.01-.23-.01-.07,0-.15-.01-.23-.02h-.14s-.09-.01-.13-.01l-1.83-.15c-.06,0-.12-.01-.18-.02l-.16-.02s-.1-.01-.12-.01h-.09s-.07-.02-.07-.02l-.93-.13-1.58-.38s-.05-.01-.07-.02l-.43-.17s-.09-.04-.13-.06c-.04-.02-.07-.04-.1-.05l-.19-.1s-.05-.04-.12-.08c-.03-.02-.05-.04-.11-.08-.04-.02-.07-.05-.1-.07-.04-.04-.09-.08-.12-.12-.05-.04-.09-.09-.12-.12-.04-.05-.09-.1-.16-.19-.04-.04-.07-.1-.12-.15-.04-.07-.09-.13-.15-.24-.04-.08-.09-.16-.13-.24-.05-.1-.1-.21-.16-.34-.06-.13-.12-.27-.17-.42-.06-.17-.12-.35-.18-.53-.07-.21-.13-.42-.19-.68-.07-.25-.13-.52-.19-.82-.07-.32-.13-.66-.2-1.07-.07-.4-.14-.83-.21-1.33-.07-.51-.14-1.05-.21-1.68-.07-.65-.14-1.34-.21-2.14-.07-.81-.14-1.7-.21-2.73-.07-1.03-.14-2.16-.21-3.46-.07-1.3-.14-2.75-.21-4.35-.07-1.61-.15-3.42-.21-5.31-.05-1.33-.1-2.77-.15-4.21l-.14-4.04c-.05-1.39-.09-2.79-.14-3.99v-.26c-.08-1.74-.15-3.53-.22-4.63-.12-1.89-.25-3.84-2.27-3.85-2.16-.06-2.3,2.01-2.41,3.85-.07,1.11-.15,2.95-.21,4.72v.15c-.05,1.24-.1,2.69-.15,4.13l-.15,4.29c-.04,1.31-.09,2.61-.13,3.81-.07,1.89-.15,3.69-.21,5.3-.07,1.61-.15,3.04-.22,4.35-.07,1.29-.14,2.42-.21,3.45-.07,1.02-.14,1.91-.21,2.71-.07.8-.15,1.49-.21,2.13-.07.63-.14,1.17-.21,1.67-.07.49-.14.92-.21,1.32-.07.39-.13.73-.2,1.04-.06.3-.13.58-.19.84-.06.24-.13.45-.19.66-.05.18-.12.35-.18.52-.05.15-.11.27-.16.38-.05.12-.1.23-.17.35-.04.09-.09.16-.13.24-.04.07-.09.13-.13.19-.04.05-.09.11-.14.18-.03.04-.06.07-.12.13-.02.03-.05.05-.1.1-.03.02-.06.05-.12.1-.03.02-.06.04-.09.06-.02.02-.05.04-.08.05-.02.02-.05.04-.08.05-.02.02-.04.03-.09.05l-.11.05-1.14.33s-.07.01-.07.01h-.05s-.05.02-.07.02l-.32.04s-.06.01-.09.01l-.45.04h-.56s-.49,0-.49,0h-.07l-.32-.02s-.09,0-.11,0c-.04,0-.09,0-.13-.01l-1.34-.21s-.07-.02-.09-.02l-.08-.02s-.05-.02-.07-.02l-.93-.33s-.09-.04-.13-.06c-.04-.02-.09-.05-.18-.1-.04-.02-.09-.05-.1-.05-.04-.03-.09-.06-.15-.1-.04-.03-.08-.05-.12-.09-.04-.03-.09-.07-.13-.11-.04-.04-.09-.07-.16-.14-.04-.04-.08-.08-.1-.1-.05-.05-.09-.1-.14-.15-.04-.06-.09-.12-.15-.19-.04-.05-.09-.11-.13-.18-.05-.07-.1-.16-.16-.26-.05-.09-.1-.18-.16-.29-.05-.1-.12-.21-.16-.32-.05-.13-.12-.26-.17-.4-.06-.15-.12-.31-.19-.49-.06-.18-.12-.36-.18-.57-.06-.21-.13-.44-.19-.68-.07-.26-.13-.53-.2-.85-.07-.3-.13-.63-.2-.99-.07-.37-.14-.77-.21-1.21-.07-.45-.14-.93-.21-1.47-.07-.54-.14-1.13-.21-1.8-.07-.67-.14-1.39-.21-2.21-.07-.83-.15-1.72-.21-2.76-.07-1.04-.15-2.15-.21-3.44-.07-1.3-.15-2.71-.22-4.34-.07-1.64-.14-3.43-.21-5.5-.07-2.08-.14-4.35-.21-6.96-.07-2.62-.15-5.5-.22-8.73-.07-3.23-.14-6.83-.21-10.63-.05-2.89-.11-6.05-.16-9.19l-.12-6.84c-.04-2.33-.08-4.66-.12-6.79h35.24Z"/><path class="cls-1" d="M86.72,89.74h.16c.07.01.15.01.25.02.07,0,.13,0,.2,0,.02,0,.07,0,.09,0h.41c.09.02.16.02.23.02h.32s.02,0,.02,0c.08,0,.16,0,.24.01h.21c.07.01.15.01.23.01v5.04H0v-4.85h1.22c.09,0,.17,0,.26-.01h1.68s.26-.01.26-.01h.61s.1,0,.1,0h1.2s.08-.01.08-.01c.06,0,.12,0,.18,0h.82s.07,0,.07,0h.79s.22-.01.22-.01c.09,0,.18,0,.26,0h.16c.1,0,.19,0,.27,0h.38s.23,0,.23,0c.09,0,.18,0,.22,0h.63s.07-.01.07-.01h.37c.09,0,.19,0,.3-.01h.55s.11-.01.13-.01h.32c.09,0,.17-.01.24-.01h.57s.08-.02.09-.02h.19c.07,0,.13,0,.24-.01h.33s.09,0,.12-.01h.2c.09,0,.18,0,.25-.01h.16s.07,0,.07,0c.08,0,.16,0,.18,0h.37c.08-.01.16-.02.3-.02h.36s.07-.02.08-.02c.09,0,.18,0,.2,0,.09,0,.17,0,.2-.01l.64-.03c.07,0,.15,0,.26-.01l.38-.02s.08,0,.12,0h.11s.05-.01.07-.01l.36-.02c.08,0,.16,0,.29-.02l1.29-.1s.05,0,.07,0l.22-.02s.06,0,.07,0h.08s.07-.01.11-.02l.36-.04s.05,0,.07,0l.9-.13c.1-.01.19-.02.26-.04l.2-.04s.07-.01.1-.02l.65-.13c.11-.02.21-.04.28-.06.1-.02.19-.05.25-.06l.24-.07s.1-.03.12-.04l.13-.04c.1-.03.19-.06.27-.09.1-.03.2-.06.33-.11l.24-.1s.07-.02.09-.03c.08-.04.15-.07.21-.09.09-.04.19-.09.34-.16.1-.05.19-.1.3-.16l.23-.13c.11-.06.22-.13.32-.2.1-.07.21-.15.3-.22.11-.08.21-.16.33-.26.1-.09.21-.18.34-.32.09-.09.18-.18.29-.3.1-.11.19-.22.28-.33.1-.12.2-.26.32-.42.1-.14.19-.29.27-.43.1-.16.19-.34.29-.53.09-.18.19-.37.28-.58.09-.2.17-.41.26-.65.09-.23.17-.47.26-.75.08-.26.16-.54.24-.86.07-.3.15-.63.23-1.02.08-.37.15-.76.23-1.21.08-.44.15-.92.23-1.47.02-.12.04-.25.05-.38.01.1.02.19.04.28.07.55.15,1.02.23,1.46.08.45.15.85.23,1.21.08.37.16.7.24,1,.08.32.16.59.24.85.09.27.17.52.26.75.09.23.18.43.27.65.09.2.18.38.27.57.1.18.19.36.28.5.1.16.21.32.31.46.1.14.2.27.29.38.12.13.23.26.32.35.11.12.22.22.32.32.12.1.23.2.31.26.1.08.19.15.34.26.11.07.22.15.33.21.1.07.21.13.32.19.01,0,.07.03.08.04.07.04.15.08.23.12.07.04.14.07.26.12.02.01.04.02.05.02.1.04.19.08.32.12.08.03.16.06.24.09.01,0,.06.02.07.02.08.02.16.05.19.06.09.03.18.05.3.09.01,0,.07.01.08.02.08.02.16.04.21.05l.26.05s.08.01.09.02c.07.01.15.02.24.04.09.02.17.03.26.04l.24.03c.08.01.16.02.24.02.06,0,.12.01.19.02,0,0,.07,0,.08.01h.19s.07.02.1.02h.18c.08.01.16.02.26.02h.52s.54,0,.54,0c.08,0,.15,0,.23,0h.21c.09-.02.19-.02.28-.04h.12c.05,0,.12-.01.17-.02l.62-.07s.07-.01.08-.01l1-.18s.07-.01.07-.02c.09-.01.16-.04.21-.04.09-.02.17-.04.26-.07.1-.02.18-.05.24-.07l.29-.09c.09-.02.18-.06.27-.09l.2-.07s.06-.02.09-.03c.09-.04.18-.07.26-.11s.18-.07.27-.12c.1-.05.21-.1.31-.15.1-.05.21-.11.27-.15.08-.04.16-.09.25-.15.02,0,.05-.03.07-.04.1-.06.19-.13.29-.19.1-.07.21-.15.3-.21.1-.08.2-.16.3-.25.1-.08.19-.16.27-.24.11-.1.21-.2.33-.33.09-.1.19-.2.29-.32.09-.11.18-.22.29-.36.1-.12.19-.25.3-.41.09-.14.18-.28.26-.41.09-.15.18-.32.27-.49.09-.16.18-.34.27-.54.09-.18.17-.38.26-.59.09-.21.16-.43.26-.68.08-.23.16-.47.24-.75.08-.26.15-.54.24-.85.07-.3.15-.63.23-.99.07-.35.15-.72.23-1.13.07-.41.15-.85.23-1.33.07-.49.15-1,.22-1.58.08-.57.15-1.19.23-1.89.07-.69.15-1.44.22-2.3.07-.85.15-1.77.21-2.82.01-.15.02-.3.03-.44.01.15.02.29.03.44.07,1.06.15,1.97.22,2.83.07.86.15,1.6.22,2.3.07.7.15,1.32.23,1.89.07.58.15,1.1.22,1.58.08.49.15.93.23,1.33.08.42.16.79.23,1.13.08.35.16.68.23.98.08.31.16.59.24.85.09.27.16.52.25.75.09.24.16.46.25.67.09.21.17.41.26.6.09.19.18.37.26.53.09.17.18.33.27.47.09.15.18.3.27.43.1.15.2.29.29.41.1.13.19.24.29.36.1.12.19.22.3.33.1.11.21.21.28.28.1.1.2.18.3.26.1.09.2.17.3.25s.21.15.3.21c.1.07.2.13.33.22.1.06.2.12.24.15.1.05.21.11.31.16.1.05.19.1.32.16.09.04.18.08.26.12.09.04.18.07.27.11.02.01.05.02.08.03l.2.07c.09.03.18.07.3.1l.23.07c.09.03.18.05.27.08.08.02.16.04.26.06.07.02.15.04.27.07l.26.05s.09.02.1.02l.65.11s.09.01.1.01l.61.07c.06,0,.14.01.19.01h.09c.1.02.19.02.32.03h.18c.08.01.16.02.26.02h.52s.55,0,.55,0c.08,0,.15,0,.23,0h.18s.07-.02.1-.02h.19s.07-.02.08-.02c.07,0,.13-.01.19-.02.07,0,.16-.01.29-.03l.18-.02c.09-.01.17-.02.27-.04.07-.01.14-.02.21-.04l.09-.02c.09-.02.18-.04.23-.05.1-.02.21-.05.34-.08.09-.02.18-.05.23-.07.09-.02.16-.04.24-.07,0,0,.05-.02.07-.02.09-.03.19-.07.27-.1.09-.03.18-.07.29-.11.02-.01.1-.04.12-.05.07-.04.15-.07.22-.1.07-.03.15-.07.23-.12,0,0,.06-.03.07-.04.1-.05.21-.12.32-.18.1-.07.21-.13.31-.2.01-.01.06-.04.07-.05.09-.07.18-.13.24-.18.12-.09.23-.19.33-.27.12-.1.23-.21.32-.31.12-.12.23-.24.33-.37.1-.12.2-.25.3-.39.1-.14.21-.29.3-.45.1-.16.2-.33.29-.51.1-.18.19-.36.29-.58.09-.21.18-.42.26-.65s.17-.47.26-.74c.08-.27.16-.54.24-.85s.15-.63.24-1.02c.08-.37.15-.75.23-1.2.07-.44.15-.91.23-1.46.01-.09.02-.19.04-.28.02.13.04.26.05.38.07.55.15,1.03.23,1.47.07.45.15.84.23,1.22s.16.71.23,1c.09.32.16.6.25.89.09.27.16.51.25.74.09.24.18.45.26.64.09.21.18.4.28.59.1.19.19.37.27.5.1.16.2.32.29.46.11.16.21.3.29.4.1.13.2.24.32.38.1.11.2.21.3.31.1.1.2.19.31.29.1.09.21.18.3.24.12.09.23.18.31.23.12.09.24.16.35.23l.26.15c.11.06.21.12.32.17.1.05.2.09.27.12.07.04.14.06.21.09l.37.15c.09.04.18.07.27.1.1.04.19.07.26.09l.21.06s.05.02.07.02l.23.05c.09.02.17.05.24.06.1.03.21.05.26.06l.7.15s.07.01.1.02l1.36.2s.09.01.12.01l.31.04s.07,0,.11.01h.08s.1.02.12.02l.17.02s.04,0,.07,0l1.34.11c.08,0,.16.01.28.02l.32.02s.05,0,.07,0h.11s.08.01.12.01l.41.02c.08,0,.16.01.24.01l.33.02"/><path class="cls-1" d="M102.81,37.11v-1.88l17.45-28.01h2.69v27.7h4.97v2.18h-4.97v8.66h-2.3v-8.66h-17.84ZM120.66,34.93V10.86h-.19l-14.81,23.87v.21h15Z"/><path class="cls-1" d="M144.06,46.3c-2.06,0-3.89-.44-5.51-1.31-1.61-.87-2.89-2.07-3.82-3.6-.94-1.53-1.42-3.28-1.44-5.25h2.31c.05,2.33.86,4.25,2.43,5.74s3.58,2.24,6.02,2.24c1.88,0,3.54-.45,4.98-1.36,1.44-.91,2.56-2.15,3.38-3.72.82-1.57,1.22-3.34,1.2-5.31,0-2.08-.44-3.9-1.32-5.46-.88-1.56-2.05-2.76-3.52-3.61-1.47-.85-3.09-1.29-4.87-1.3-1.41,0-2.72.25-3.95.76-1.23.51-2.28,1.16-3.14,1.95l-2.65-.38,2.28-18.46h18.07v2.18h-16.05l-1.77,14.44h.19c.9-.8,1.98-1.45,3.23-1.95,1.25-.5,2.61-.74,4.07-.74,2.16,0,4.13.53,5.92,1.58,1.79,1.05,3.21,2.52,4.27,4.4,1.06,1.88,1.58,4.07,1.57,6.57-.01,2.41-.53,4.56-1.54,6.46-1.02,1.9-2.42,3.39-4.21,4.49-1.79,1.1-3.83,1.65-6.13,1.65Z"/><path class="cls-1" d="M163.62,46.02c-.56,0-1.04-.2-1.44-.59-.4-.4-.59-.88-.59-1.44s.2-1.03.59-1.43c.4-.4.88-.6,1.44-.6s1.03.2,1.43.6c.4.4.6.88.6,1.43,0,.38-.09.72-.27,1.03-.18.31-.43.55-.73.73-.31.18-.65.27-1.03.27Z"/><path class="cls-1" d="M104.75,93.77v-38.55h11.88c2.45,0,4.54.5,6.3,1.51s3.1,2.38,4.04,4.12c.94,1.74,1.41,3.73,1.41,5.97s-.47,4.18-1.41,5.93-2.29,3.12-4.04,4.13-3.84,1.51-6.28,1.51h-9.54v15.38h-2.35ZM107.1,76.21h9.49c1.98,0,3.68-.41,5.08-1.21,1.4-.81,2.48-1.92,3.24-3.33.75-1.41,1.13-3.03,1.13-4.85s-.38-3.46-1.13-4.87c-.75-1.42-1.84-2.53-3.25-3.33-1.41-.8-3.11-1.2-5.09-1.2h-9.47v18.8Z"/><path class="cls-1" d="M134.23,93.77v-38.55h11.88c2.45,0,4.54.5,6.3,1.51s3.1,2.38,4.04,4.12c.94,1.74,1.41,3.73,1.41,5.97s-.47,4.18-1.41,5.93-2.29,3.12-4.04,4.13-3.84,1.51-6.28,1.51h-9.54v15.38h-2.35ZM136.58,76.21h9.49c1.98,0,3.68-.41,5.08-1.21,1.4-.81,2.48-1.92,3.24-3.33.75-1.41,1.13-3.03,1.13-4.85s-.38-3.46-1.13-4.87c-.75-1.42-1.84-2.53-3.25-3.33-1.41-.8-3.11-1.2-5.09-1.2h-9.47v18.8Z"/><path class="cls-1" d="M193.17,55.23v38.55h-2.3l-24.58-34.27h-.23v34.27h-2.35v-38.55h2.32l24.58,34.31h.23v-34.31h2.33Z"/><path class="cls-1" d="M201.77,55.23h2.56l14.85,35.16h.26l14.85-35.16h2.56v38.55h-2.26v-32.96h-.23l-13.95,32.96h-2.22l-13.95-32.96h-.23v32.96h-2.26v-38.55Z"/><path class="cls-1" d="M245.49,93.77v-38.55h11.88c2.43,0,4.53.48,6.29,1.43,1.76.95,3.11,2.27,4.05,3.96.94,1.69,1.41,3.65,1.41,5.88s-.47,4.15-1.41,5.82c-.94,1.68-2.28,2.98-4.03,3.92-.61.33-1.26.6-1.94.81l9.07,16.71h-2.71l-8.75-16.22c-.63.08-1.28.11-1.96.11h-9.54v16.11h-2.35ZM247.84,75.46h9.49c1.98,0,3.68-.37,5.08-1.11,1.41-.74,2.48-1.78,3.24-3.11.75-1.34,1.13-2.91,1.13-4.73s-.38-3.43-1.13-4.79c-.75-1.36-1.83-2.42-3.25-3.17-1.41-.75-3.11-1.13-5.09-1.13h-9.47v18.05Z"/><path class="cls-2" d="M275.47,93.77v-2.58l12.59-14.15c1.64-1.86,2.97-3.45,3.97-4.76s1.73-2.53,2.19-3.65c.46-1.12.69-2.28.69-3.48,0-1.47-.34-2.75-1.03-3.85-.68-1.1-1.62-1.95-2.81-2.57-1.19-.61-2.53-.92-4.03-.92-1.58,0-2.96.34-4.15,1.02s-2.1,1.61-2.76,2.79c-.65,1.18-.98,2.53-.98,4.07h-3.37c0-2.13.49-4.02,1.48-5.68.98-1.65,2.33-2.95,4.05-3.89,1.71-.94,3.65-1.41,5.83-1.41s4.05.46,5.72,1.38c1.67.92,2.98,2.17,3.93,3.75.95,1.58,1.43,3.35,1.43,5.31,0,1.42-.25,2.79-.74,4.12-.5,1.33-1.35,2.81-2.55,4.44-1.2,1.63-2.87,3.63-5.01,5.99l-9.56,10.67v.24h19.07v3.16h-23.96Z"/><path class="cls-2" d="M316.28,94.3c-2.71,0-5.02-.78-6.94-2.34-1.91-1.56-3.38-3.82-4.4-6.79-1.02-2.96-1.53-6.52-1.53-10.67s.51-7.69,1.53-10.64c1.02-2.96,2.5-5.22,4.42-6.79,1.93-1.57,4.23-2.36,6.92-2.36s4.99.79,6.92,2.36c1.93,1.57,3.4,3.84,4.42,6.79,1.02,2.96,1.53,6.5,1.53,10.64s-.51,7.71-1.53,10.67c-1.02,2.96-2.49,5.22-4.4,6.79-1.91,1.56-4.23,2.34-6.94,2.34ZM316.28,91.14c2.97,0,5.29-1.45,6.96-4.36,1.67-2.9,2.5-7,2.5-12.28,0-3.51-.38-6.51-1.14-9.01-.76-2.49-1.84-4.39-3.26-5.71-1.41-1.32-3.1-1.98-5.07-1.98-2.95,0-5.26,1.46-6.95,4.39-1.68,2.93-2.52,7.03-2.52,12.3,0,3.51.38,6.51,1.14,9,.76,2.48,1.84,4.38,3.26,5.68,1.41,1.31,3.1,1.96,5.07,1.96Z"/><path class="cls-2" d="M333.53,93.77v-2.58l12.59-14.15c1.64-1.86,2.97-3.45,3.97-4.76s1.73-2.53,2.19-3.65c.46-1.12.69-2.28.69-3.48,0-1.47-.34-2.75-1.03-3.85-.68-1.1-1.62-1.95-2.81-2.57-1.19-.61-2.53-.92-4.03-.92-1.58,0-2.96.34-4.15,1.02s-2.1,1.61-2.76,2.79c-.65,1.18-.98,2.53-.98,4.07h-3.37c0-2.13.49-4.02,1.48-5.68.98-1.65,2.33-2.95,4.05-3.89,1.71-.94,3.65-1.41,5.83-1.41s4.05.46,5.72,1.38c1.67.92,2.98,2.17,3.93,3.75.95,1.58,1.43,3.35,1.43,5.31,0,1.42-.25,2.79-.74,4.12-.5,1.33-1.35,2.81-2.55,4.44-1.2,1.63-2.87,3.63-5.01,5.99l-9.56,10.67v.24h19.07v3.16h-23.96Z"/><path class="cls-2" d="M360.13,85.49v-2.86l17.18-27.4h4.16v27.1h5.12v3.16h-5.12v8.28h-3.35v-8.28h-17.99ZM378.13,82.33v-22.3h-.26l-13.8,22.06v.24h14.06Z"/><path class="cls-2" d="M1.16,110.43v-8.73h2.82c.62,0,1.14.12,1.55.36.42.24.73.56.94.96.21.41.32.86.32,1.37s-.11.97-.32,1.37c-.21.41-.52.73-.94.97-.42.24-.93.36-1.55.36H1.96v3.34h-.8ZM1.96,106.38h2.01c.46,0,.84-.09,1.14-.26s.53-.41.68-.71c.15-.3.22-.64.22-1.02s-.07-.72-.22-1.02c-.15-.3-.38-.53-.68-.7-.3-.17-.69-.26-1.15-.26h-2v3.96Z"/><path class="cls-2" d="M8.06,110.43v-6.55h.74v1.01h.06c.13-.33.36-.6.68-.8s.69-.3,1.11-.3c.06,0,.13,0,.21,0,.08,0,.14,0,.19,0v.77s-.09-.01-.18-.03c-.08-.01-.18-.02-.28-.02-.34,0-.64.07-.91.22s-.48.34-.63.59c-.15.25-.23.54-.23.87v4.23h-.76Z"/><path class="cls-2" d="M13.83,110.58c-.4,0-.76-.08-1.08-.23-.33-.16-.59-.38-.78-.67-.19-.29-.29-.65-.29-1.07,0-.32.06-.6.18-.82s.3-.4.52-.54c.22-.14.49-.25.8-.34.31-.08.64-.15,1.01-.19.37-.05.68-.09.93-.12.25-.03.45-.09.58-.16.13-.07.2-.19.2-.36v-.15c0-.45-.13-.8-.4-1.05s-.65-.39-1.14-.39-.86.1-1.15.31c-.3.21-.5.45-.62.73l-.72-.26c.15-.36.35-.64.61-.86.26-.21.55-.37.88-.46.32-.09.65-.14.98-.14.25,0,.51.03.78.1.27.07.52.18.76.34s.42.38.57.67c.15.29.22.65.22,1.08v4.44h-.76v-1.04h-.05c-.09.19-.23.38-.4.56s-.4.33-.67.45-.59.17-.95.17ZM13.93,109.89c.4,0,.75-.09,1.05-.27.3-.18.52-.42.68-.71s.24-.62.24-.98v-.95c-.06.05-.15.1-.28.14-.13.04-.28.08-.46.11-.17.03-.34.06-.51.08-.17.02-.32.04-.46.06-.37.05-.69.12-.95.21-.26.1-.46.23-.6.4-.14.17-.21.39-.21.65,0,.4.14.71.43.92.28.22.64.33,1.07.33Z"/><path class="cls-2" d="M18.34,110.43v-8.73h.76v5.26h.09l3.07-3.08h.96l-2.8,2.8,2.97,3.74h-.97l-2.57-3.24-.75.71v2.54h-.76Z"/><path class="cls-2" d="M27.15,103.89v.66h-1.38v4.18c0,.27.05.49.14.64s.22.26.37.33c.15.06.31.1.48.1.1,0,.18,0,.26-.02.07-.01.13-.03.19-.04l.16.69c-.07.03-.17.05-.27.08-.11.02-.24.04-.4.04-.28,0-.55-.06-.8-.18-.26-.12-.47-.3-.63-.55-.17-.24-.25-.54-.25-.9v-4.35h-.98v-.66h.98v-1.57h.76v1.57h1.38Z"/><path class="cls-2" d="M28.87,102.76c-.16,0-.29-.05-.4-.16s-.17-.24-.17-.39.06-.28.17-.39.24-.16.4-.16.29.05.4.16.17.24.17.39-.06.28-.17.39-.24.16-.4.16ZM28.48,110.43v-6.55h.76v6.55h-.76Z"/><path class="cls-2" d="M35.26,105.33l-.69.2c-.07-.2-.17-.37-.29-.53s-.29-.29-.49-.38-.45-.14-.74-.14c-.44,0-.81.11-1.09.32s-.43.48-.43.81c0,.28.1.51.29.68.19.17.5.31.9.42l.99.24c.55.13.96.34,1.23.63.27.29.41.65.41,1.09,0,.37-.1.7-.31.98s-.49.51-.85.68c-.36.16-.79.25-1.27.25-.64,0-1.17-.14-1.58-.43s-.68-.71-.8-1.25l.73-.18c.09.39.28.68.55.88.27.2.64.3,1.08.3.5,0,.9-.11,1.21-.34.3-.23.45-.51.45-.85,0-.26-.09-.49-.26-.67-.18-.18-.44-.31-.8-.4l-1.07-.26c-.57-.14-.99-.35-1.26-.65s-.41-.66-.41-1.1c0-.36.1-.68.29-.95.2-.27.47-.49.81-.65.34-.16.74-.23,1.18-.23.6,0,1.08.14,1.44.41.36.27.62.64.78,1.12Z"/><path class="cls-2" d="M39.22,110.57c-.58,0-1.09-.15-1.53-.44-.43-.29-.77-.69-1.01-1.2-.24-.51-.36-1.09-.36-1.74s.12-1.24.36-1.75c.24-.51.58-.91,1.01-1.2.43-.29.93-.44,1.5-.44.44,0,.83.08,1.19.25.35.17.65.41.88.71.23.31.38.66.44,1.07h-.77c-.08-.37-.27-.69-.57-.95s-.69-.39-1.15-.39c-.42,0-.79.11-1.11.34-.32.23-.57.54-.75.94-.18.4-.27.87-.27,1.4s.09,1,.26,1.41c.18.41.42.73.74.96.32.23.69.34,1.12.34.29,0,.55-.05.79-.16.24-.11.44-.26.6-.47.16-.2.27-.44.33-.72h.77c-.06.39-.2.75-.42,1.05-.22.31-.51.55-.87.73-.35.18-.76.26-1.21.26Z"/><path class="cls-2" d="M43.78,106.34v4.09h-.76v-8.73h.76v3.21h.07c.15-.34.39-.61.71-.81.32-.2.73-.3,1.23-.3.44,0,.83.09,1.17.27.34.18.6.45.78.81.19.36.28.79.28,1.31v4.24h-.76v-4.19c0-.54-.15-.96-.45-1.28-.3-.31-.7-.47-1.21-.47-.35,0-.66.07-.93.22-.27.15-.49.36-.65.64-.16.28-.24.61-.24.99Z"/><path class="cls-2" d="M52.32,110.57c-.61,0-1.14-.14-1.59-.43-.45-.29-.79-.68-1.03-1.19-.24-.51-.36-1.09-.36-1.75s.12-1.25.36-1.76c.24-.51.58-.92,1.01-1.21s.93-.44,1.49-.44c.35,0,.7.06,1.03.19.33.13.63.33.89.59s.47.6.62,1c.15.4.23.88.23,1.43v.38h-4.88c.01.48.1.9.27,1.27.18.39.43.69.77.9s.73.32,1.18.32c.31,0,.58-.05.82-.14s.43-.23.59-.39c.16-.16.28-.34.36-.54l.72.23c-.1.28-.26.53-.49.76-.23.23-.51.42-.84.56-.34.14-.72.21-1.16.21ZM50.1,106.72h4.1c0-.42-.08-.8-.25-1.14s-.4-.6-.7-.8-.65-.29-1.04-.29c-.42,0-.78.11-1.1.33s-.56.51-.74.88c-.15.32-.24.66-.27,1.02Z"/><path class="cls-2" d="M59.57,110.43v-8.73h2.82c.62,0,1.14.12,1.55.36.42.24.73.56.94.96.21.41.32.86.32,1.37s-.11.97-.32,1.37c-.21.41-.52.73-.94.97-.42.24-.93.36-1.55.36h-2.03v3.34h-.8ZM60.37,106.38h2.01c.46,0,.84-.09,1.14-.26s.53-.41.68-.71c.15-.3.22-.64.22-1.02s-.07-.72-.22-1.02c-.15-.3-.38-.53-.68-.7-.3-.17-.69-.26-1.15-.26h-2v3.96Z"/><path class="cls-2" d="M66.48,110.43v-6.55h.74v1.01h.06c.13-.33.36-.6.68-.8s.69-.3,1.11-.3c.06,0,.13,0,.21,0,.08,0,.14,0,.19,0v.77s-.09-.01-.18-.03c-.08-.01-.18-.02-.28-.02-.34,0-.64.07-.91.22s-.48.34-.63.59c-.15.25-.23.54-.23.87v4.23h-.76Z"/><path class="cls-2" d="M72.81,110.57c-.57,0-1.06-.14-1.5-.43-.43-.29-.77-.68-1.02-1.19-.24-.51-.37-1.09-.37-1.76s.12-1.26.37-1.77.58-.91,1.02-1.19c.43-.29.93-.43,1.5-.43s1.06.14,1.5.43c.43.29.77.68,1.02,1.19.25.51.37,1.1.37,1.77s-.12,1.25-.37,1.76c-.24.51-.58.9-1.02,1.19-.43.29-.93.43-1.5.43ZM72.81,109.88c.45,0,.84-.12,1.15-.37s.55-.57.72-.98c.16-.41.25-.85.25-1.34s-.08-.94-.25-1.35c-.16-.41-.4-.74-.72-.98s-.7-.37-1.15-.37-.84.12-1.15.37c-.32.25-.56.58-.72.98-.16.41-.24.86-.24,1.35s.08.94.24,1.34c.16.41.4.73.72.98s.7.37,1.15.37Z"/><path class="cls-2" d="M77.13,110.43v-8.73h.76v3.43h.07c.08-.2.21-.4.37-.61.16-.21.37-.38.63-.52s.59-.21,1-.21c.54,0,1.01.14,1.41.42.41.28.72.68.95,1.18.23.51.34,1.1.34,1.77s-.11,1.27-.34,1.78c-.23.51-.54.9-.95,1.19s-.87.43-1.41.43c-.4,0-.73-.07-1-.21-.27-.14-.48-.32-.64-.53-.16-.21-.29-.41-.38-.61h-.09v1.21h-.74ZM77.88,107.17c0,.53.08,1,.24,1.4s.38.73.68.96c.3.23.66.35,1.08.35s.8-.12,1.1-.36.53-.57.69-.97c.16-.41.23-.87.23-1.38s-.08-.96-.23-1.36-.38-.72-.68-.96-.67-.36-1.11-.36-.79.11-1.08.34-.52.54-.68.95c-.16.4-.23.86-.23,1.39Z"/><path class="cls-2" d="M84.82,101.71v8.73h-.76v-8.73h.76Z"/><path class="cls-2" d="M89.17,110.57c-.61,0-1.14-.14-1.59-.43-.45-.29-.79-.68-1.03-1.19-.24-.51-.36-1.09-.36-1.75s.12-1.25.36-1.76c.24-.51.58-.92,1.01-1.21s.93-.44,1.49-.44c.35,0,.7.06,1.03.19.33.13.63.33.89.59s.47.6.62,1c.15.4.23.88.23,1.43v.38h-4.88c.01.48.1.9.27,1.27.18.39.43.69.77.9s.73.32,1.18.32c.31,0,.58-.05.82-.14s.43-.23.59-.39c.16-.16.28-.34.36-.54l.72.23c-.1.28-.26.53-.49.76-.23.23-.51.42-.84.56-.34.14-.72.21-1.16.21ZM86.96,106.72h4.1c0-.42-.08-.8-.25-1.14s-.4-.6-.7-.8-.65-.29-1.04-.29c-.42,0-.78.11-1.1.33s-.56.51-.74.88c-.15.32-.24.66-.27,1.02Z"/><path class="cls-2" d="M93.17,110.43v-6.55h.74v1.01h.07c.13-.34.35-.6.65-.8.31-.19.67-.29,1.1-.29.45,0,.82.11,1.11.32.29.21.51.5.65.87h.06c.15-.36.39-.65.72-.87.33-.21.74-.32,1.22-.32.61,0,1.09.19,1.44.57.35.38.53.94.53,1.67v4.38h-.76v-4.38c0-.52-.13-.91-.4-1.16-.26-.26-.61-.39-1.04-.39-.5,0-.89.15-1.15.46-.27.31-.4.7-.4,1.17v4.31h-.78v-4.45c0-.44-.12-.8-.37-1.07-.25-.27-.6-.41-1.04-.41-.3,0-.57.07-.81.22-.24.15-.43.35-.57.62-.14.26-.21.56-.21.91v4.19h-.76Z"/><path class="cls-2" d="M105.79,110.57c-.61,0-1.14-.14-1.59-.43-.45-.29-.79-.68-1.03-1.19-.24-.51-.36-1.09-.36-1.75s.12-1.25.36-1.76c.24-.51.58-.92,1.01-1.21s.93-.44,1.49-.44c.35,0,.7.06,1.03.19.33.13.63.33.89.59s.47.6.62,1c.15.4.23.88.23,1.43v.38h-4.88c.01.48.1.9.27,1.27.18.39.43.69.77.9s.73.32,1.18.32c.31,0,.58-.05.82-.14s.43-.23.59-.39c.16-.16.28-.34.36-.54l.72.23c-.1.28-.26.53-.49.76-.23.23-.51.42-.84.56-.34.14-.72.21-1.16.21ZM103.58,106.72h4.1c0-.42-.08-.8-.25-1.14s-.4-.6-.7-.8-.65-.29-1.04-.29c-.42,0-.78.11-1.1.33s-.56.51-.74.88c-.15.32-.24.66-.27,1.02Z"/><path class="cls-2" d="M115.24,110.57c-.54,0-1.01-.14-1.41-.43s-.72-.68-.94-1.19c-.23-.51-.34-1.1-.34-1.78s.11-1.26.34-1.77c.23-.51.54-.9.95-1.18.41-.28.88-.42,1.42-.42.4,0,.73.07.99.21s.48.31.63.52c.16.21.28.41.37.61h.07v-3.43h.76v8.73h-.74v-1.21h-.09c-.09.2-.21.4-.38.61-.16.21-.38.38-.64.53-.27.14-.6.21-1,.21ZM115.33,109.88c.42,0,.78-.12,1.08-.35s.53-.55.68-.96.24-.88.24-1.4-.08-.99-.23-1.39c-.16-.4-.38-.72-.68-.95s-.66-.34-1.09-.34-.81.12-1.11.36c-.3.24-.53.56-.68.96s-.23.86-.23,1.36.08.97.23,1.38c.16.41.38.73.68.97s.67.36,1.1.36Z"/><path class="cls-2" d="M122.51,110.57c-.61,0-1.14-.14-1.59-.43-.45-.29-.79-.68-1.03-1.19-.24-.51-.36-1.09-.36-1.75s.12-1.25.36-1.76c.24-.51.58-.92,1.01-1.21s.93-.44,1.49-.44c.35,0,.7.06,1.03.19.33.13.63.33.89.59s.47.6.62,1c.15.4.23.88.23,1.43v.38h-4.88c.01.48.1.9.27,1.27.18.39.43.69.77.9s.73.32,1.18.32c.31,0,.58-.05.82-.14s.43-.23.59-.39c.16-.16.28-.34.36-.54l.72.23c-.1.28-.26.53-.49.76-.23.23-.51.42-.84.56-.34.14-.72.21-1.16.21ZM120.29,106.72h4.1c0-.42-.08-.8-.25-1.14s-.4-.6-.7-.8-.65-.29-1.04-.29c-.42,0-.78.11-1.1.33s-.56.51-.74.88c-.15.32-.24.66-.27,1.02Z"/><path class="cls-2" d="M126.51,110.43v-6.55h.74v1.01h.06c.13-.33.36-.6.68-.8s.69-.3,1.11-.3c.06,0,.13,0,.21,0,.08,0,.14,0,.19,0v.77s-.09-.01-.18-.03c-.08-.01-.18-.02-.28-.02-.34,0-.64.07-.91.22s-.48.34-.63.59c-.15.25-.23.54-.23.87v4.23h-.76Z"/><path class="cls-2" d="M133.72,110.43v-8.73h.8v4.7h.08l4.26-4.7h1.05l-3.73,4.04,3.71,4.69h-.97l-3.23-4.14-1.16,1.3v2.83h-.8Z"/><path class="cls-2" d="M143.17,110.57c-.61,0-1.14-.14-1.59-.43-.45-.29-.79-.68-1.03-1.19-.24-.51-.36-1.09-.36-1.75s.12-1.25.36-1.76c.24-.51.58-.92,1.01-1.21s.93-.44,1.49-.44c.35,0,.7.06,1.03.19.33.13.63.33.89.59s.47.6.62,1c.15.4.23.88.23,1.43v.38h-4.88c.01.48.1.9.27,1.27.18.39.43.69.77.9s.73.32,1.18.32c.31,0,.58-.05.82-.14s.43-.23.59-.39c.16-.16.28-.34.36-.54l.72.23c-.1.28-.26.53-.49.76-.23.23-.51.42-.84.56-.34.14-.72.21-1.16.21ZM140.95,106.72h4.1c0-.42-.08-.8-.25-1.14s-.4-.6-.7-.8-.65-.29-1.04-.29c-.42,0-.78.11-1.1.33s-.56.51-.74.88c-.15.32-.24.66-.27,1.02Z"/><path class="cls-2" d="M147.17,110.43v-6.55h.74v1.01h.06c.13-.33.36-.6.68-.8s.69-.3,1.11-.3c.06,0,.13,0,.21,0,.08,0,.14,0,.19,0v.77s-.09-.01-.18-.03c-.08-.01-.18-.02-.28-.02-.34,0-.64.07-.91.22s-.48.34-.63.59c-.15.25-.23.54-.23.87v4.23h-.76Z"/><path class="cls-2" d="M151.93,106.34v4.09h-.76v-6.55h.74v1.03h.07c.15-.33.39-.6.72-.81s.73-.3,1.21-.3c.44,0,.83.09,1.16.28.33.18.59.45.78.81.19.35.28.79.28,1.31v4.24h-.76v-4.19c0-.54-.15-.96-.45-1.27-.3-.31-.7-.47-1.2-.47-.34,0-.65.07-.92.22-.27.15-.48.36-.63.64-.15.28-.23.61-.23.99Z"/><path class="cls-2" d="M157.8,110.43v-6.55h.74v1.01h.06c.13-.33.36-.6.68-.8s.69-.3,1.11-.3c.06,0,.13,0,.21,0,.08,0,.14,0,.19,0v.77s-.09-.01-.18-.03c-.08-.01-.18-.02-.28-.02-.34,0-.64.07-.91.22s-.48.34-.63.59c-.15.25-.23.54-.23.87v4.23h-.76Z"/><path class="cls-2" d="M164.23,110.57c-.61,0-1.14-.14-1.59-.43-.45-.29-.79-.68-1.03-1.19-.24-.51-.36-1.09-.36-1.75s.12-1.25.36-1.76c.24-.51.58-.92,1.01-1.21s.93-.44,1.49-.44c.35,0,.7.06,1.03.19.33.13.63.33.89.59s.47.6.62,1c.15.4.23.88.23,1.43v.38h-4.88c.01.48.1.9.27,1.27.18.39.43.69.77.9s.73.32,1.18.32c.31,0,.58-.05.82-.14s.43-.23.59-.39c.16-.16.28-.34.36-.54l.72.23c-.1.28-.26.53-.49.76-.23.23-.51.42-.84.56-.34.14-.72.21-1.16.21ZM162.01,106.72h4.1c0-.42-.08-.8-.25-1.14s-.4-.6-.7-.8-.65-.29-1.04-.29c-.42,0-.78.11-1.1.33s-.56.51-.74.88c-.15.32-.24.66-.27,1.02Z"/><path class="cls-2" d="M172.55,105.33l-.69.2c-.07-.2-.17-.37-.29-.53s-.29-.29-.49-.38-.45-.14-.74-.14c-.44,0-.81.11-1.09.32s-.43.48-.43.81c0,.28.1.51.29.68.19.17.5.31.9.42l.99.24c.55.13.96.34,1.23.63.27.29.41.65.41,1.09,0,.37-.1.7-.31.98s-.49.51-.85.68c-.36.16-.79.25-1.27.25-.64,0-1.17-.14-1.58-.43s-.68-.71-.8-1.25l.73-.18c.09.39.28.68.55.88.27.2.64.3,1.08.3.5,0,.9-.11,1.21-.34.3-.23.45-.51.45-.85,0-.26-.09-.49-.26-.67-.18-.18-.44-.31-.8-.4l-1.07-.26c-.57-.14-.99-.35-1.26-.65s-.41-.66-.41-1.1c0-.36.1-.68.29-.95.2-.27.47-.49.81-.65.34-.16.74-.23,1.18-.23.6,0,1.08.14,1.44.41.36.27.62.64.78,1.12Z"/><path class="cls-2" d="M176.5,110.57c-.57,0-1.06-.14-1.5-.43-.43-.29-.77-.68-1.02-1.19-.24-.51-.37-1.09-.37-1.76s.12-1.26.37-1.77.58-.91,1.02-1.19c.43-.29.93-.43,1.5-.43s1.06.14,1.5.43c.43.29.77.68,1.02,1.19.25.51.37,1.1.37,1.77s-.12,1.25-.37,1.76c-.24.51-.58.9-1.02,1.19-.43.29-.93.43-1.5.43ZM176.5,109.88c.45,0,.84-.12,1.15-.37s.55-.57.72-.98c.16-.41.25-.85.25-1.34s-.08-.94-.25-1.35c-.16-.41-.4-.74-.72-.98s-.7-.37-1.15-.37-.84.12-1.15.37c-.32.25-.56.58-.72.98-.16.41-.24.86-.24,1.35s.08.94.24,1.34c.16.41.4.73.72.98s.7.37,1.15.37Z"/><path class="cls-2" d="M181.5,106.34v4.09h-.76v-6.55h.74v1.03h.07c.15-.33.39-.6.72-.81s.73-.3,1.21-.3c.44,0,.83.09,1.16.28.33.18.59.45.78.81.19.35.28.79.28,1.31v4.24h-.76v-4.19c0-.54-.15-.96-.45-1.27-.3-.31-.7-.47-1.2-.47-.34,0-.65.07-.92.22-.27.15-.48.36-.63.64-.15.28-.23.61-.23.99Z"/><path class="cls-2" d="M189.16,110.58c-.4,0-.76-.08-1.08-.23-.33-.16-.59-.38-.78-.67-.19-.29-.29-.65-.29-1.07,0-.32.06-.6.18-.82s.3-.4.52-.54c.22-.14.49-.25.8-.34.31-.08.64-.15,1.01-.19.37-.05.68-.09.93-.12.25-.03.45-.09.58-.16.13-.07.2-.19.2-.36v-.15c0-.45-.13-.8-.4-1.05s-.65-.39-1.14-.39-.86.1-1.15.31c-.3.21-.5.45-.62.73l-.72-.26c.15-.36.35-.64.61-.86.26-.21.55-.37.88-.46.32-.09.65-.14.98-.14.25,0,.51.03.78.1.27.07.52.18.76.34s.42.38.57.67c.15.29.22.65.22,1.08v4.44h-.76v-1.04h-.05c-.09.19-.23.38-.4.56s-.4.33-.67.45-.59.17-.95.17ZM189.26,109.89c.4,0,.75-.09,1.05-.27.3-.18.52-.42.68-.71s.24-.62.24-.98v-.95c-.06.05-.15.1-.28.14-.13.04-.28.08-.46.11-.17.03-.34.06-.51.08-.17.02-.32.04-.46.06-.37.05-.69.12-.95.21-.26.1-.46.23-.6.4-.14.17-.21.39-.21.65,0,.4.14.71.43.92.28.22.64.33,1.07.33Z"/><path class="cls-2" d="M194.43,106.34v4.09h-.76v-6.55h.74v1.03h.07c.15-.33.39-.6.72-.81s.73-.3,1.21-.3c.44,0,.83.09,1.16.28.33.18.59.45.78.81.19.35.28.79.28,1.31v4.24h-.76v-4.19c0-.54-.15-.96-.45-1.27-.3-.31-.7-.47-1.2-.47-.34,0-.65.07-.92.22-.27.15-.48.36-.63.64-.15.28-.23.61-.23.99Z"/><path class="cls-2" d="M199.89,110.43v-.6l3.78-5.17v-.05h-3.62v-.72h4.6v.63l-3.72,5.15v.06h3.85v.72h-4.9Z"/><path class="cls-2" d="M210.4,105.33l-.69.2c-.07-.2-.17-.37-.29-.53s-.29-.29-.49-.38-.45-.14-.74-.14c-.44,0-.81.11-1.09.32s-.43.48-.43.81c0,.28.1.51.29.68.19.17.5.31.9.42l.99.24c.55.13.96.34,1.23.63.27.29.41.65.41,1.09,0,.37-.1.7-.31.98s-.49.51-.85.68c-.36.16-.79.25-1.27.25-.64,0-1.17-.14-1.58-.43s-.68-.71-.8-1.25l.73-.18c.09.39.28.68.55.88.27.2.64.3,1.08.3.5,0,.9-.11,1.21-.34.3-.23.45-.51.45-.85,0-.26-.09-.49-.26-.67-.18-.18-.44-.31-.8-.4l-1.07-.26c-.57-.14-.99-.35-1.26-.65s-.41-.66-.41-1.1c0-.36.1-.68.29-.95.2-.27.47-.49.81-.65.34-.16.74-.23,1.18-.23.6,0,1.08.14,1.44.41.36.27.62.64.78,1.12Z"/><path class="cls-2" d="M211.83,112.89v-9h.74v1.25h.09c.09-.2.22-.4.38-.6s.37-.38.63-.52c.26-.14.59-.21,1-.21.54,0,1.01.14,1.42.42.4.28.72.68.95,1.18.23.51.34,1.1.34,1.77s-.11,1.27-.34,1.78c-.23.51-.54.9-.95,1.19s-.87.43-1.41.43c-.4,0-.73-.07-.99-.21-.27-.14-.48-.32-.64-.53-.16-.21-.29-.41-.38-.61h-.07v3.67h-.76ZM212.58,107.17c0,.53.08,1,.24,1.4s.39.73.68.96.66.35,1.08.35.8-.12,1.1-.36.53-.57.69-.97c.16-.41.24-.87.24-1.38s-.08-.96-.23-1.36-.38-.72-.68-.96-.67-.36-1.11-.36-.79.11-1.09.34c-.3.23-.52.54-.68.95-.16.4-.23.86-.23,1.39Z"/><path class="cls-2" d="M221.38,110.57c-.61,0-1.14-.14-1.59-.43-.45-.29-.79-.68-1.03-1.19-.24-.51-.36-1.09-.36-1.75s.12-1.25.36-1.76c.24-.51.58-.92,1.01-1.21s.93-.44,1.49-.44c.35,0,.7.06,1.03.19.33.13.63.33.89.59.26.27.47.6.62,1,.15.4.23.88.23,1.43v.38h-4.88c.01.48.1.9.27,1.27.18.39.43.69.77.9s.73.32,1.18.32c.31,0,.58-.05.82-.14s.43-.23.59-.39c.16-.16.28-.34.37-.54l.72.23c-.1.28-.26.53-.49.76-.23.23-.51.42-.84.56s-.72.21-1.16.21ZM219.16,106.72h4.1c0-.42-.09-.8-.25-1.14-.17-.34-.4-.6-.7-.8-.3-.2-.65-.29-1.04-.29-.42,0-.78.11-1.1.33s-.56.51-.74.88c-.15.32-.24.66-.27,1.02Z"/><path class="cls-2" d="M225.38,110.43v-8.73h.76v5.26h.09l3.07-3.08h.96l-2.8,2.8,2.97,3.74h-.97l-2.56-3.24-.75.71v2.54h-.76Z"/><path class="cls-2" d="M234.19,103.89v.66h-1.38v4.18c0,.27.05.49.14.64s.22.26.37.33c.15.06.31.1.48.1.1,0,.18,0,.25-.02.07-.01.13-.03.19-.04l.16.69c-.07.03-.16.05-.27.08-.11.02-.24.04-.4.04-.28,0-.55-.06-.8-.18-.26-.12-.47-.3-.63-.55-.16-.24-.25-.54-.25-.9v-4.35h-.98v-.66h.98v-1.57h.76v1.57h1.38Z"/><path class="cls-2" d="M235.52,110.43v-6.55h.74v1.01h.06c.13-.33.36-.6.68-.8.33-.2.69-.3,1.11-.3.06,0,.13,0,.21,0,.08,0,.14,0,.19,0v.77s-.09-.01-.18-.03c-.09-.01-.18-.02-.28-.02-.34,0-.64.07-.91.22s-.47.34-.63.59c-.15.25-.23.54-.23.87v4.23h-.76Z"/><path class="cls-2" d="M241.85,110.57c-.57,0-1.07-.14-1.5-.43-.43-.29-.77-.68-1.02-1.19-.24-.51-.37-1.09-.37-1.76s.12-1.26.37-1.77.58-.91,1.02-1.19c.43-.29.93-.43,1.5-.43s1.06.14,1.5.43c.43.29.77.68,1.02,1.19.25.51.37,1.1.37,1.77s-.12,1.25-.37,1.76c-.24.51-.58.9-1.02,1.19-.43.29-.93.43-1.5.43ZM241.85,109.88c.45,0,.84-.12,1.15-.37s.55-.57.72-.98c.16-.41.25-.85.25-1.34s-.08-.94-.25-1.35c-.16-.41-.4-.74-.72-.98s-.7-.37-1.15-.37-.84.12-1.15.37c-.32.25-.56.58-.72.98-.16.41-.25.86-.25,1.35s.08.94.25,1.34c.16.41.4.73.72.98s.7.37,1.16.37Z"/><path class="cls-2" d="M250.36,105.33l-.7.2c-.07-.2-.16-.37-.29-.53s-.29-.29-.49-.38-.45-.14-.74-.14c-.44,0-.81.11-1.09.32-.28.21-.43.48-.43.81,0,.28.1.51.29.68s.5.31.9.42l.99.24c.55.13.96.34,1.23.63.27.29.41.65.41,1.09,0,.37-.1.7-.31.98-.21.29-.49.51-.85.68-.37.16-.79.25-1.27.25-.64,0-1.17-.14-1.58-.43-.42-.29-.68-.71-.8-1.25l.73-.18c.09.39.28.68.55.88s.64.3,1.08.3c.5,0,.91-.11,1.21-.34.3-.23.45-.51.45-.85,0-.26-.09-.49-.26-.67-.18-.18-.44-.31-.8-.4l-1.07-.26c-.57-.14-.99-.35-1.26-.65s-.41-.66-.41-1.1c0-.36.1-.68.29-.95s.47-.49.81-.65.74-.23,1.18-.23c.6,0,1.08.14,1.44.41.36.27.62.64.78,1.12Z"/><path class="cls-2" d="M251.79,110.43v-8.73h.76v5.26h.09l3.07-3.08h.96l-2.8,2.8,2.97,3.74h-.97l-2.56-3.24-.75.71v2.54h-.76Z"/><path class="cls-2" d="M259.95,110.57c-.57,0-1.07-.14-1.5-.43-.43-.29-.77-.68-1.02-1.19-.24-.51-.37-1.09-.37-1.76s.12-1.26.37-1.77.58-.91,1.02-1.19c.43-.29.93-.43,1.5-.43s1.06.14,1.5.43c.43.29.77.68,1.02,1.19.25.51.37,1.1.37,1.77s-.12,1.25-.37,1.76c-.24.51-.58.9-1.02,1.19-.43.29-.93.43-1.5.43ZM259.95,109.88c.45,0,.84-.12,1.15-.37s.55-.57.72-.98c.16-.41.25-.85.25-1.34s-.08-.94-.25-1.35c-.16-.41-.4-.74-.72-.98s-.7-.37-1.15-.37-.84.12-1.15.37c-.32.25-.56.58-.72.98-.16.41-.25.86-.25,1.35s.08.94.25,1.34c.16.41.4.73.72.98s.7.37,1.16.37Z"/><path class="cls-2" d="M264.2,112.89v-9h.74v1.25h.09c.09-.2.22-.4.38-.6s.37-.38.63-.52c.26-.14.59-.21,1-.21.54,0,1.01.14,1.42.42.4.28.72.68.95,1.18.23.51.34,1.1.34,1.77s-.11,1.27-.34,1.78c-.23.51-.54.9-.95,1.19-.41.28-.87.43-1.41.43-.4,0-.73-.07-.99-.21-.27-.14-.48-.32-.64-.53-.16-.21-.29-.41-.38-.61h-.07v3.67h-.76ZM264.95,107.17c0,.53.08,1,.24,1.4.16.41.38.73.68.96s.66.35,1.08.35.8-.12,1.1-.36.53-.57.69-.97c.16-.41.24-.87.24-1.38s-.08-.96-.23-1.36c-.16-.4-.38-.72-.68-.96-.3-.24-.67-.36-1.11-.36s-.79.11-1.09.34c-.3.23-.52.54-.68.95-.15.4-.23.86-.23,1.39Z"/><path class="cls-2" d="M271.46,102.76c-.16,0-.29-.05-.4-.16-.11-.11-.17-.24-.17-.39s.06-.28.17-.39c.11-.11.24-.16.4-.16s.29.05.4.16c.11.11.17.24.17.39s-.06.28-.17.39c-.11.11-.24.16-.4.16ZM271.07,110.43v-6.55h.76v6.55h-.76Z"/><path class="cls-2" d="M276.15,110.57c-.61,0-1.14-.14-1.58-.43s-.79-.68-1.03-1.19c-.24-.51-.36-1.09-.36-1.75s.12-1.25.36-1.76.58-.92,1.01-1.21.93-.44,1.49-.44c.36,0,.7.06,1.03.19.33.13.63.33.89.59s.47.6.62,1c.15.4.23.88.23,1.43v.38h-4.88c.01.48.1.9.27,1.27.18.39.43.69.77.9.33.21.73.32,1.18.32.31,0,.58-.05.82-.14s.43-.23.59-.39c.16-.16.28-.34.37-.54l.72.23c-.1.28-.26.53-.49.76-.23.23-.51.42-.84.56-.34.14-.72.21-1.16.21ZM273.93,106.72h4.1c0-.42-.08-.8-.25-1.14s-.4-.6-.7-.8-.65-.29-1.04-.29c-.41,0-.78.11-1.09.33s-.56.51-.74.88c-.15.32-.24.66-.27,1.02Z"/><path class="cls-2" d="M284.42,98.89v14.35h-.66v-14.35h.66Z"/><path class="cls-2" d="M289.88,110.43v-8.73h5.05v.72h-4.25v3.29h3.86v.72h-3.86v4.01h-.8Z"/><path class="cls-2" d="M296.06,110.43v-6.55h.74v1.01h.06c.13-.33.36-.6.68-.8.33-.2.69-.3,1.11-.3.06,0,.13,0,.21,0,.08,0,.14,0,.19,0v.77s-.09-.01-.18-.03c-.09-.01-.18-.02-.28-.02-.34,0-.64.07-.91.22s-.47.34-.63.59c-.15.25-.23.54-.23.87v4.23h-.76Z"/><path class="cls-2" d="M301.82,110.58c-.39,0-.75-.08-1.08-.23-.33-.16-.59-.38-.78-.67-.19-.29-.29-.65-.29-1.07,0-.32.06-.6.18-.82s.3-.4.52-.54c.22-.14.49-.25.8-.34s.64-.15,1.01-.19c.37-.05.68-.09.93-.12.25-.03.45-.09.58-.16.13-.07.2-.19.2-.36v-.15c0-.45-.13-.8-.4-1.05-.27-.26-.65-.39-1.14-.39s-.86.1-1.15.31c-.3.21-.51.45-.62.73l-.72-.26c.15-.36.35-.64.61-.86.26-.21.55-.37.88-.46.32-.09.65-.14.98-.14.25,0,.51.03.78.1s.52.18.76.34c.23.16.42.38.57.67.14.29.22.65.22,1.08v4.44h-.76v-1.04h-.05c-.09.19-.23.38-.41.56s-.4.33-.67.45c-.27.12-.59.17-.95.17ZM301.93,109.89c.4,0,.75-.09,1.05-.27.29-.18.52-.42.68-.71s.24-.62.24-.98v-.95c-.06.05-.15.1-.28.14-.13.04-.28.08-.46.11-.17.03-.34.06-.51.08-.17.02-.32.04-.46.06-.37.05-.68.12-.95.21-.26.1-.46.23-.6.4-.14.17-.21.39-.21.65,0,.4.14.71.43.92.28.22.64.33,1.07.33Z"/><path class="cls-2" d="M307.09,106.34v4.09h-.76v-6.55h.74v1.03h.07c.15-.33.39-.6.72-.81.33-.2.73-.3,1.21-.3.44,0,.83.09,1.16.28.33.18.59.45.78.81.19.35.28.79.28,1.31v4.24h-.76v-4.19c0-.54-.15-.96-.45-1.27-.3-.31-.7-.47-1.2-.47-.34,0-.65.07-.92.22-.27.15-.48.36-.63.64-.16.28-.23.61-.23.99Z"/><path class="cls-2" d="M312.96,110.43v-8.73h.76v5.26h.09l3.07-3.08h.96l-2.8,2.8,2.97,3.74h-.97l-2.56-3.24-.75.71v2.54h-.76Z"/><path class="cls-2" d="M321.88,103.89v.66h-1.45v5.88h-.76v-5.88h-1.01v-.66h1.01v-.96c0-.35.08-.65.24-.89.16-.24.38-.42.64-.55.26-.12.54-.19.84-.19.2,0,.36.02.5.05s.24.06.31.1l-.22.67c-.06-.02-.13-.04-.21-.06-.08-.02-.19-.03-.31-.03-.33,0-.58.09-.76.28-.18.19-.27.45-.27.79v.8h1.45Z"/><path class="cls-2" d="M327.16,107.93v-4.04h.76v6.55h-.76v-1.09h-.06c-.15.34-.4.61-.73.84-.33.22-.74.33-1.22.33-.42,0-.79-.09-1.11-.27-.32-.18-.58-.45-.76-.81s-.28-.79-.28-1.31v-4.24h.76v4.19c0,.51.15.92.45,1.23.3.31.69.47,1.16.47.29,0,.58-.07.85-.21.27-.14.5-.35.67-.62.18-.27.26-.61.26-1.01Z"/><path class="cls-2" d="M329.6,110.43v-6.55h.74v1.01h.06c.13-.33.36-.6.68-.8.33-.2.69-.3,1.11-.3.06,0,.13,0,.21,0,.08,0,.14,0,.19,0v.77s-.09-.01-.18-.03c-.09-.01-.18-.02-.28-.02-.34,0-.64.07-.91.22s-.47.34-.63.59c-.15.25-.23.54-.23.87v4.23h-.76Z"/><path class="cls-2" d="M336.46,103.89v.66h-1.38v4.18c0,.27.05.49.14.64s.22.26.37.33c.15.06.31.1.48.1.1,0,.18,0,.25-.02.07-.01.13-.03.19-.04l.16.69c-.07.03-.16.05-.27.08-.11.02-.24.04-.4.04-.28,0-.55-.06-.8-.18-.26-.12-.47-.3-.63-.55-.16-.24-.25-.54-.25-.9v-4.35h-.98v-.66h.98v-1.57h.76v1.57h1.38Z"/><path class="cls-2" d="M342.78,110.58c-.39,0-.75-.08-1.08-.23-.33-.16-.59-.38-.78-.67-.19-.29-.29-.65-.29-1.07,0-.32.06-.6.18-.82s.3-.4.52-.54c.22-.14.49-.25.8-.34s.64-.15,1.01-.19c.37-.05.68-.09.93-.12.25-.03.45-.09.58-.16.13-.07.2-.19.2-.36v-.15c0-.45-.13-.8-.4-1.05-.27-.26-.65-.39-1.14-.39s-.86.1-1.15.31c-.3.21-.51.45-.62.73l-.72-.26c.15-.36.35-.64.61-.86.26-.21.55-.37.88-.46.32-.09.65-.14.98-.14.25,0,.51.03.78.1s.52.18.76.34c.23.16.42.38.57.67.14.29.22.65.22,1.08v4.44h-.76v-1.04h-.05c-.09.19-.23.38-.41.56s-.4.33-.67.45c-.27.12-.59.17-.95.17ZM342.88,109.89c.4,0,.75-.09,1.05-.27.29-.18.52-.42.68-.71s.24-.62.24-.98v-.95c-.06.05-.15.1-.28.14-.13.04-.28.08-.46.11-.17.03-.34.06-.51.08-.17.02-.32.04-.46.06-.37.05-.68.12-.95.21-.26.1-.46.23-.6.4-.14.17-.21.39-.21.65,0,.4.14.71.43.92.28.22.64.33,1.07.33Z"/><path class="cls-2" d="M347.29,110.43v-6.55h.74v1.01h.07c.13-.34.35-.6.65-.8s.67-.29,1.1-.29c.45,0,.82.11,1.11.32.29.21.51.5.65.87h.06c.15-.36.39-.65.72-.87.33-.21.74-.32,1.22-.32.61,0,1.09.19,1.44.57s.53.94.53,1.67v4.38h-.76v-4.38c0-.52-.13-.91-.4-1.16-.26-.26-.61-.39-1.04-.39-.5,0-.88.15-1.15.46-.27.31-.41.7-.41,1.17v4.31h-.78v-4.45c0-.44-.12-.8-.37-1.07-.25-.27-.6-.41-1.04-.41-.3,0-.57.07-.81.22-.24.15-.43.35-.57.62s-.21.56-.21.91v4.19h-.76Z"/><path class="cls-2" d="M360.52,101.71h.92l3.17,7.6h.08l3.17-7.6h.92v8.73h-.75v-7.04h-.07l-2.94,7.04h-.72l-2.94-7.04h-.07v7.04h-.75v-8.73Z"/><path class="cls-2" d="M372.45,110.58c-.39,0-.75-.08-1.08-.23-.33-.16-.59-.38-.78-.67-.19-.29-.29-.65-.29-1.07,0-.32.06-.6.18-.82s.3-.4.52-.54c.22-.14.49-.25.8-.34s.64-.15,1.01-.19c.37-.05.68-.09.93-.12.25-.03.45-.09.58-.16.13-.07.2-.19.2-.36v-.15c0-.45-.13-.8-.4-1.05-.27-.26-.65-.39-1.14-.39s-.86.1-1.15.31c-.3.21-.51.45-.62.73l-.72-.26c.15-.36.35-.64.61-.86.26-.21.55-.37.88-.46.32-.09.65-.14.98-.14.25,0,.51.03.78.1s.52.18.76.34c.23.16.42.38.57.67.14.29.22.65.22,1.08v4.44h-.76v-1.04h-.05c-.09.19-.23.38-.41.56s-.4.33-.67.45c-.27.12-.59.17-.95.17ZM372.55,109.89c.4,0,.75-.09,1.05-.27.29-.18.52-.42.68-.71s.24-.62.24-.98v-.95c-.06.05-.15.1-.28.14-.13.04-.28.08-.46.11-.17.03-.34.06-.51.08-.17.02-.32.04-.46.06-.37.05-.68.12-.95.21-.26.1-.46.23-.6.4-.14.17-.21.39-.21.65,0,.4.14.71.43.92.28.22.64.33,1.07.33Z"/><path class="cls-2" d="M377.33,102.76c-.16,0-.29-.05-.4-.16-.11-.11-.17-.24-.17-.39s.06-.28.17-.39c.11-.11.24-.16.4-.16s.29.05.4.16c.11.11.17.24.17.39s-.06.28-.17.39c-.11.11-.24.16-.4.16ZM376.94,110.43v-6.55h.76v6.55h-.76Z"/><path class="cls-2" d="M380.16,106.34v4.09h-.76v-6.55h.74v1.03h.07c.15-.33.39-.6.72-.81.33-.2.73-.3,1.21-.3.44,0,.83.09,1.16.28.33.18.59.45.78.81.19.35.28.79.28,1.31v4.24h-.76v-4.19c0-.54-.15-.96-.45-1.27-.3-.31-.7-.47-1.2-.47-.34,0-.65.07-.92.22-.27.15-.48.36-.63.64-.16.28-.23.61-.23.99Z"/></g></svg>