<?xml version="1.0" encoding="utf-8"?>
<!-- Generator: Adobe Illustrator 28.1.0, SVG Export Plug-In . SVG Version: 6.00 Build 0)  -->
<svg version="1.1" id="Ebene_2_00000066513056699226525390000011467924880693518767_"
	 xmlns="http://www.w3.org/2000/svg" xmlns:xlink="http://www.w3.org/1999/xlink" x="0px" y="0px" viewBox="0 0 390 113.3"
	 style="enable-background:new 0 0 390 113.3;" xml:space="preserve">
<style type="text/css">
	.st0{fill:#5AA5E5;}
	.st1{fill:#FFFFFF;}
</style>
<g id="Ebene_1-2">
	<path class="st0" d="M1.4,85.8H0v-80h48.7c0,2.1-0.1,4.4-0.1,6.8l-0.1,7.2c0,3-0.1,6.1-0.2,8.9c-0.1,3.8-0.2,7.4-0.2,10.6
		c-0.1,3.2-0.2,6.1-0.2,8.7c-0.1,2.6-0.1,4.9-0.2,7c-0.1,2.1-0.2,3.9-0.2,5.5c-0.1,1.6-0.2,3-0.2,4.3c-0.1,1.3-0.1,2.4-0.2,3.4
		c-0.1,1-0.1,1.9-0.2,2.8s-0.1,1.6-0.2,2.2c-0.1,0.7-0.1,1.2-0.2,1.8c-0.1,0.5-0.1,1-0.2,1.5c-0.1,0.4-0.1,0.8-0.2,1.2
		s-0.1,0.7-0.2,1c-0.1,0.3-0.1,0.6-0.2,0.8c-0.1,0.3-0.1,0.5-0.2,0.7c-0.1,0.2-0.1,0.4-0.2,0.6c-0.1,0.2-0.1,0.3-0.2,0.5
		s-0.1,0.3-0.2,0.4c0,0.1-0.1,0.2-0.2,0.3s-0.1,0.2-0.2,0.3c0,0.1-0.1,0.2-0.1,0.2c0,0.1-0.1,0.1-0.1,0.2c0,0.1-0.1,0.1-0.2,0.2
		c0,0.1-0.1,0.1-0.1,0.2l-0.1,0.1c0,0-0.1,0.1-0.2,0.1c0,0-0.1,0.1-0.2,0.1c0,0-0.1,0.1-0.1,0.1c0,0-0.1,0.1-0.1,0.1l-0.2,0.1
		c0,0-0.1,0-0.1,0.1c0,0-0.1,0-0.1,0.1l-0.9,0.3c0,0-0.1,0-0.1,0l-0.1,0c0,0-0.1,0-0.1,0l-1.3,0.2c0,0-0.1,0-0.2,0h-0.1l-0.3,0h-0.5
		h-0.5h-0.1l-0.5,0c0,0-0.1,0-0.1,0l-0.3,0c0,0,0,0-0.1,0h-0.1c0,0,0,0-0.1,0l-0.3-0.1l-1-0.3c0,0,0,0-0.1,0c0,0,0,0-0.1,0
		s0,0-0.1-0.1c0,0-0.1,0-0.1-0.1c0,0-0.1-0.1-0.1-0.1l-0.1-0.1c0,0-0.1-0.1-0.1-0.1c0-0.1-0.1-0.1-0.1-0.2c0-0.1-0.1-0.1-0.1-0.2
		c0-0.1-0.1-0.2-0.1-0.2c0-0.1-0.1-0.2-0.2-0.3c0-0.1-0.1-0.3-0.2-0.4c-0.1-0.2-0.1-0.3-0.2-0.5c-0.1-0.2-0.1-0.4-0.2-0.7
		c-0.1-0.2-0.1-0.5-0.2-0.8c-0.1-0.3-0.1-0.7-0.2-1c-0.1-0.4-0.1-0.8-0.2-1.3s-0.1-1-0.2-1.7s-0.1-1.3-0.2-2.1s-0.2-1.7-0.2-2.7
		c-0.1-1-0.2-2.2-0.2-3.5c-0.1-1.3-0.2-2.7-0.2-4.3c-0.1-1.6-0.1-3.4-0.2-5.3c0-1.2-0.1-2.6-0.1-4L32.4,50c0-1.4-0.1-2.9-0.2-4.1
		l0-0.4C32.2,43.7,32.1,42,32,41c-0.1-1.8-0.2-3.9-2.4-3.8c-2.1,0-2.2,2-2.3,3.9c-0.1,1-0.1,2.7-0.2,4.5l0,0.4
		c0,1.3-0.1,2.8-0.1,4.2l-0.1,3.6c0,1.5-0.1,3-0.2,4.4c-0.1,1.9-0.1,3.7-0.2,5.3s-0.1,3.1-0.2,4.3c-0.1,1.3-0.1,2.4-0.2,3.5
		c-0.1,1-0.1,1.9-0.2,2.7c-0.1,0.8-0.1,1.5-0.2,2.1c-0.1,0.6-0.1,1.2-0.2,1.7s-0.1,0.9-0.2,1.3c-0.1,0.4-0.1,0.7-0.2,1.1
		c-0.1,0.3-0.1,0.6-0.2,0.8c-0.1,0.2-0.1,0.5-0.2,0.7c-0.1,0.2-0.1,0.4-0.2,0.5c0,0.2-0.1,0.3-0.2,0.4c0,0.1-0.1,0.2-0.1,0.3
		c0,0.1-0.1,0.2-0.1,0.3c0,0.1-0.1,0.2-0.1,0.2c0,0.1-0.1,0.1-0.1,0.2c0,0.1-0.1,0.1-0.1,0.2c0,0.1-0.1,0.1-0.1,0.1
		c0,0-0.1,0.1-0.1,0.1c0,0-0.1,0.1-0.1,0.1c0,0-0.1,0.1-0.1,0.1c0,0-0.1,0-0.1,0.1l-0.2,0.1l-0.7,0.3c0,0-0.1,0-0.1,0l-2.7,0.5
		c0,0,0,0-0.1,0l-0.2,0c-0.1,0-0.1,0-0.2,0c-0.1,0-0.2,0-0.2,0l-1.6,0.1c0,0-0.1,0-0.1,0h-0.1c-0.1,0-0.1,0-0.2,0
		c-0.1,0-0.1,0-0.2,0l-0.4,0H16l-0.8,0c0,0-0.1,0-0.1,0h-0.3l-0.1,0l-1,0c-0.1,0-0.2,0-0.3,0h-0.1c0,0-0.1,0-0.1,0H13
		c-0.1,0-0.2,0-0.2,0h-0.3c0,0-0.1,0-0.1,0l-1,0h-0.5l-0.2,0h-0.4c0,0-0.1,0-0.1,0l-1.4,0H8.4H8.3H7.7H7.6H7.5H7.2H6.6l-0.2,0H5.5
		c0,0-0.1,0-0.1,0H4.3l-0.1,0H3.4H3.3h-1c-0.1,0-0.2,0-0.2,0H1.5c0,0,0,0-0.1,0L1.4,85.8z"/>
	<path class="st0" d="M89.1,5.8v79.8c-0.1,0-0.2,0-0.2,0l-0.6,0h-0.1l-0.3,0h-0.4c0,0-0.1,0-0.1,0l-0.8,0h-0.1l-0.3,0
		c-0.1,0-0.2,0-0.2,0c-0.1,0-0.2,0-0.2,0h-0.1c0,0-0.1,0-0.1,0l-1.8-0.2c-0.1,0-0.1,0-0.2,0l-0.2,0c0,0-0.1,0-0.1,0H83l-0.1,0L82,85
		l-1.6-0.4c0,0-0.1,0-0.1,0l-0.4-0.2c0,0-0.1,0-0.1-0.1s-0.1,0-0.1-0.1l-0.2-0.1c0,0-0.1,0-0.1-0.1c0,0-0.1,0-0.1-0.1
		c0,0-0.1-0.1-0.1-0.1c0,0-0.1-0.1-0.1-0.1c-0.1,0-0.1-0.1-0.1-0.1c0-0.1-0.1-0.1-0.2-0.2c0,0-0.1-0.1-0.1-0.2
		c0-0.1-0.1-0.1-0.2-0.2c0-0.1-0.1-0.2-0.1-0.2c-0.1-0.1-0.1-0.2-0.2-0.3c-0.1-0.1-0.1-0.3-0.2-0.4c-0.1-0.2-0.1-0.3-0.2-0.5
		c-0.1-0.2-0.1-0.4-0.2-0.7c-0.1-0.2-0.1-0.5-0.2-0.8c-0.1-0.3-0.1-0.7-0.2-1.1c-0.1-0.4-0.1-0.8-0.2-1.3c-0.1-0.5-0.1-1.1-0.2-1.7
		c-0.1-0.7-0.1-1.3-0.2-2.1c-0.1-0.8-0.1-1.7-0.2-2.7c-0.1-1-0.1-2.2-0.2-3.5c-0.1-1.3-0.1-2.8-0.2-4.3c-0.1-1.6-0.2-3.4-0.2-5.3
		c-0.1-1.3-0.1-2.8-0.2-4.2l-0.1-4c-0.1-1.4-0.1-2.8-0.1-4v-0.3c-0.1-1.7-0.2-3.5-0.2-4.6c-0.1-1.9-0.2-3.8-2.3-3.8
		c-2.2-0.1-2.3,2-2.4,3.8c-0.1,1.1-0.2,3-0.2,4.7v0.2c-0.1,1.2-0.1,2.7-0.2,4.1l-0.2,4.3c0,1.3-0.1,2.6-0.1,3.8
		c-0.1,1.9-0.2,3.7-0.2,5.3c-0.1,1.6-0.2,3-0.2,4.4c-0.1,1.3-0.1,2.4-0.2,3.4c-0.1,1-0.1,1.9-0.2,2.7c-0.1,0.8-0.2,1.5-0.2,2.1
		c-0.1,0.6-0.1,1.2-0.2,1.7c-0.1,0.5-0.1,0.9-0.2,1.3c-0.1,0.4-0.1,0.7-0.2,1c-0.1,0.3-0.1,0.6-0.2,0.8c-0.1,0.2-0.1,0.4-0.2,0.7
		c-0.1,0.2-0.1,0.3-0.2,0.5c-0.1,0.2-0.1,0.3-0.2,0.4c-0.1,0.1-0.1,0.2-0.2,0.3c0,0.1-0.1,0.2-0.1,0.2c0,0.1-0.1,0.1-0.1,0.2
		c0,0.1-0.1,0.1-0.1,0.2c0,0-0.1,0.1-0.1,0.1c0,0-0.1,0.1-0.1,0.1c0,0-0.1,0.1-0.1,0.1c0,0-0.1,0-0.1,0.1c0,0-0.1,0-0.1,0.1
		c0,0-0.1,0-0.1,0.1c0,0,0,0-0.1,0.1L66,84l-1.1,0.3l-0.1,0h-0.1c0,0-0.1,0-0.1,0l-0.3,0c0,0-0.1,0-0.1,0l-0.5,0h-0.6h-0.5h-0.1
		l-0.3,0c0,0-0.1,0-0.1,0c0,0-0.1,0-0.1,0l-1.3-0.2c0,0-0.1,0-0.1,0l-0.1,0c0,0,0,0-0.1,0l-0.9-0.3c0,0-0.1,0-0.1-0.1
		s-0.1-0.1-0.2-0.1c0,0-0.1-0.1-0.1-0.1c0,0-0.1-0.1-0.2-0.1c0,0-0.1-0.1-0.1-0.1c0,0-0.1-0.1-0.1-0.1s-0.1-0.1-0.2-0.1
		c0,0-0.1-0.1-0.1-0.1c0-0.1-0.1-0.1-0.1-0.2c0-0.1-0.1-0.1-0.2-0.2c0-0.1-0.1-0.1-0.1-0.2c0-0.1-0.1-0.2-0.2-0.3
		c0-0.1-0.1-0.2-0.2-0.3c0-0.1-0.1-0.2-0.2-0.3c0-0.1-0.1-0.3-0.2-0.4c-0.1-0.2-0.1-0.3-0.2-0.5c-0.1-0.2-0.1-0.4-0.2-0.6
		S57,79.8,57,79.5c-0.1-0.3-0.1-0.5-0.2-0.8c-0.1-0.3-0.1-0.6-0.2-1c-0.1-0.4-0.1-0.8-0.2-1.2c-0.1-0.4-0.1-0.9-0.2-1.5
		s-0.1-1.1-0.2-1.8c-0.1-0.7-0.1-1.4-0.2-2.2c-0.1-0.8-0.2-1.7-0.2-2.8c-0.1-1-0.2-2.2-0.2-3.4c-0.1-1.3-0.2-2.7-0.2-4.3
		C55,58.8,54.9,57,54.9,55c-0.1-2.1-0.1-4.3-0.2-7c-0.1-2.6-0.2-5.5-0.2-8.7s-0.1-6.8-0.2-10.6c0-2.9-0.1-6-0.2-9.2L54,12.6
		c0-2.3-0.1-4.7-0.1-6.8L89.1,5.8L89.1,5.8z"/>
	<path class="st0" d="M86.7,89.7h0.2c0.1,0,0.2,0,0.2,0c0.1,0,0.1,0,0.2,0c0,0,0.1,0,0.1,0h0.4c0.1,0,0.2,0,0.2,0h0.3h0
		c0.1,0,0.2,0,0.2,0h0.2c0.1,0,0.2,0,0.2,0v5H0V90h1.2c0.1,0,0.2,0,0.3,0h1.7l0.3,0H4h0.1h1.2l0.1,0c0.1,0,0.1,0,0.2,0h0.8h0.1h0.8
		l0.2,0c0.1,0,0.2,0,0.3,0h0.2c0.1,0,0.2,0,0.3,0h0.4h0.2c0.1,0,0.2,0,0.2,0h0.6l0.1,0h0.4c0.1,0,0.2,0,0.3,0h0.6c0,0,0.1,0,0.1,0
		h0.3c0.1,0,0.2,0,0.2,0h0.6c0,0,0.1,0,0.1,0h0.2c0.1,0,0.1,0,0.2,0H13c0,0,0.1,0,0.1,0h0.2c0.1,0,0.2,0,0.2,0h0.2h0.1
		c0.1,0,0.2,0,0.2,0h0.4c0.1,0,0.2,0,0.3,0H15c0,0,0.1,0,0.1,0c0.1,0,0.2,0,0.2,0c0.1,0,0.2,0,0.2,0l0.6,0c0.1,0,0.1,0,0.3,0l0.4,0
		c0,0,0.1,0,0.1,0H17c0,0,0,0,0.1,0l0.4,0c0.1,0,0.2,0,0.3,0l1.3-0.1c0,0,0,0,0.1,0l0.2,0c0,0,0.1,0,0.1,0h0.1c0,0,0.1,0,0.1,0
		l0.4,0c0,0,0,0,0.1,0l0.9-0.1c0.1,0,0.2,0,0.3,0l0.2,0c0,0,0.1,0,0.1,0l0.6-0.1c0.1,0,0.2,0,0.3-0.1c0.1,0,0.2-0.1,0.2-0.1l0.2-0.1
		c0,0,0.1,0,0.1,0l0.1,0c0.1,0,0.2-0.1,0.3-0.1c0.1,0,0.2-0.1,0.3-0.1l0.2-0.1c0,0,0.1,0,0.1,0c0.1,0,0.1-0.1,0.2-0.1
		c0.1,0,0.2-0.1,0.3-0.2c0.1-0.1,0.2-0.1,0.3-0.2l0.2-0.1c0.1-0.1,0.2-0.1,0.3-0.2s0.2-0.2,0.3-0.2c0.1-0.1,0.2-0.2,0.3-0.3
		c0.1-0.1,0.2-0.2,0.3-0.3c0.1-0.1,0.2-0.2,0.3-0.3c0.1-0.1,0.2-0.2,0.3-0.3c0.1-0.1,0.2-0.3,0.3-0.4c0.1-0.1,0.2-0.3,0.3-0.4
		c0.1-0.2,0.2-0.3,0.3-0.5c0.1-0.2,0.2-0.4,0.3-0.6c0.1-0.2,0.2-0.4,0.3-0.7c0.1-0.2,0.2-0.5,0.3-0.8c0.1-0.3,0.2-0.5,0.2-0.9
		c0.1-0.3,0.1-0.6,0.2-1c0.1-0.4,0.1-0.8,0.2-1.2c0.1-0.4,0.1-0.9,0.2-1.5c0-0.1,0-0.2,0-0.4c0,0.1,0,0.2,0,0.3
		c0.1,0.6,0.1,1,0.2,1.5c0.1,0.4,0.1,0.8,0.2,1.2c0.1,0.4,0.2,0.7,0.2,1c0.1,0.3,0.2,0.6,0.2,0.8c0.1,0.3,0.2,0.5,0.3,0.8
		s0.2,0.4,0.3,0.7c0.1,0.2,0.2,0.4,0.3,0.6c0.1,0.2,0.2,0.4,0.3,0.5c0.1,0.2,0.2,0.3,0.3,0.5c0.1,0.1,0.2,0.3,0.3,0.4
		c0.1,0.1,0.2,0.3,0.3,0.3c0.1,0.1,0.2,0.2,0.3,0.3c0.1,0.1,0.2,0.2,0.3,0.3c0.1,0.1,0.2,0.2,0.3,0.3c0.1,0.1,0.2,0.2,0.3,0.2
		c0.1,0.1,0.2,0.1,0.3,0.2c0,0,0.1,0,0.1,0c0.1,0,0.2,0.1,0.2,0.1c0.1,0,0.1,0.1,0.3,0.1c0,0,0,0,0,0c0.1,0,0.2,0.1,0.3,0.1
		c0.1,0,0.2,0.1,0.2,0.1c0,0,0.1,0,0.1,0c0.1,0,0.2,0.1,0.2,0.1c0.1,0,0.2,0.1,0.3,0.1c0,0,0.1,0,0.1,0c0.1,0,0.2,0,0.2,0.1l0.3,0.1
		c0,0,0.1,0,0.1,0c0.1,0,0.2,0,0.2,0c0.1,0,0.2,0,0.3,0l0.2,0c0.1,0,0.2,0,0.2,0c0.1,0,0.1,0,0.2,0c0,0,0.1,0,0.1,0h0.2
		c0,0,0.1,0,0.1,0h0.2c0.1,0,0.2,0,0.3,0h0.5h0.5c0.1,0,0.2,0,0.2,0h0.2c0.1,0,0.2,0,0.3,0h0.1c0,0,0.1,0,0.2,0l0.6-0.1
		c0,0,0.1,0,0.1,0l1-0.2c0,0,0.1,0,0.1,0c0.1,0,0.2,0,0.2,0c0.1,0,0.2,0,0.3-0.1c0.1,0,0.2-0.1,0.2-0.1l0.3-0.1
		c0.1,0,0.2-0.1,0.3-0.1L44,88c0,0,0.1,0,0.1,0c0.1,0,0.2-0.1,0.3-0.1s0.2-0.1,0.3-0.1c0.1-0.1,0.2-0.1,0.3-0.2
		c0.1-0.1,0.2-0.1,0.3-0.2c0.1,0,0.2-0.1,0.2-0.2c0,0,0,0,0.1,0c0.1-0.1,0.2-0.1,0.3-0.2c0.1-0.1,0.2-0.2,0.3-0.2
		c0.1-0.1,0.2-0.2,0.3-0.2c0.1-0.1,0.2-0.2,0.3-0.2c0.1-0.1,0.2-0.2,0.3-0.3c0.1-0.1,0.2-0.2,0.3-0.3c0.1-0.1,0.2-0.2,0.3-0.4
		c0.1-0.1,0.2-0.2,0.3-0.4c0.1-0.1,0.2-0.3,0.3-0.4c0.1-0.2,0.2-0.3,0.3-0.5c0.1-0.2,0.2-0.3,0.3-0.5c0.1-0.2,0.2-0.4,0.3-0.6
		s0.2-0.4,0.3-0.7c0.1-0.2,0.2-0.5,0.2-0.8c0.1-0.3,0.2-0.5,0.2-0.8c0.1-0.3,0.2-0.6,0.2-1c0.1-0.3,0.2-0.7,0.2-1.1
		c0.1-0.4,0.2-0.8,0.2-1.3c0.1-0.5,0.2-1,0.2-1.6c0.1-0.6,0.2-1.2,0.2-1.9c0.1-0.7,0.2-1.4,0.2-2.3c0.1-0.8,0.2-1.8,0.2-2.8
		c0-0.2,0-0.3,0-0.4c0,0.2,0,0.3,0,0.4c0.1,1.1,0.2,2,0.2,2.8s0.2,1.6,0.2,2.3c0.1,0.7,0.2,1.3,0.2,1.9c0.1,0.6,0.2,1.1,0.2,1.6
		c0.1,0.5,0.2,0.9,0.2,1.3c0.1,0.4,0.2,0.8,0.2,1.1c0.1,0.3,0.2,0.7,0.2,1c0.1,0.3,0.2,0.6,0.2,0.8c0.1,0.3,0.2,0.5,0.2,0.8
		c0.1,0.2,0.2,0.5,0.2,0.7s0.2,0.4,0.3,0.6c0.1,0.2,0.2,0.4,0.3,0.5c0.1,0.2,0.2,0.3,0.3,0.5c0.1,0.2,0.2,0.3,0.3,0.4
		c0.1,0.2,0.2,0.3,0.3,0.4c0.1,0.1,0.2,0.2,0.3,0.4c0.1,0.1,0.2,0.2,0.3,0.3c0.1,0.1,0.2,0.2,0.3,0.3c0.1,0.1,0.2,0.2,0.3,0.3
		c0.1,0.1,0.2,0.2,0.3,0.2s0.2,0.2,0.3,0.2c0.1,0.1,0.2,0.1,0.3,0.2c0.1,0.1,0.2,0.1,0.2,0.2c0.1,0.1,0.2,0.1,0.3,0.2
		c0.1,0.1,0.2,0.1,0.3,0.2c0.1,0,0.2,0.1,0.3,0.1c0.1,0,0.2,0.1,0.3,0.1c0,0,0,0,0.1,0l0.2,0.1c0.1,0,0.2,0.1,0.3,0.1l0.2,0.1
		c0.1,0,0.2,0.1,0.3,0.1c0.1,0,0.2,0,0.3,0.1c0.1,0,0.2,0,0.3,0.1l0.3,0.1c0,0,0.1,0,0.1,0l0.7,0.1c0,0,0.1,0,0.1,0l0.6,0.1
		c0.1,0,0.1,0,0.2,0h0.1c0.1,0,0.2,0,0.3,0h0.2c0.1,0,0.2,0,0.3,0h0.5h0.5c0.1,0,0.1,0,0.2,0h0.2c0,0,0.1,0,0.1,0h0.2
		c0,0,0.1,0,0.1,0c0.1,0,0.1,0,0.2,0c0.1,0,0.2,0,0.3,0l0.2,0c0.1,0,0.2,0,0.3,0c0.1,0,0.1,0,0.2,0l0.1,0c0.1,0,0.2,0,0.2-0.1
		c0.1,0,0.2-0.1,0.3-0.1c0.1,0,0.2-0.1,0.2-0.1c0.1,0,0.2,0,0.2-0.1c0,0,0.1,0,0.1,0c0.1,0,0.2-0.1,0.3-0.1c0.1,0,0.2-0.1,0.3-0.1
		c0,0,0.1,0,0.1-0.1c0.1,0,0.2-0.1,0.2-0.1s0.2-0.1,0.2-0.1c0,0,0.1,0,0.1,0c0.1-0.1,0.2-0.1,0.3-0.2c0.1-0.1,0.2-0.1,0.3-0.2
		c0,0,0.1,0,0.1-0.1c0.1-0.1,0.2-0.1,0.2-0.2c0.1-0.1,0.2-0.2,0.3-0.3c0.1-0.1,0.2-0.2,0.3-0.3c0.1-0.1,0.2-0.2,0.3-0.4
		c0.1-0.1,0.2-0.2,0.3-0.4c0.1-0.1,0.2-0.3,0.3-0.4c0.1-0.2,0.2-0.3,0.3-0.5c0.1-0.2,0.2-0.4,0.3-0.6c0.1-0.2,0.2-0.4,0.3-0.7
		s0.2-0.5,0.3-0.7c0.1-0.3,0.2-0.5,0.2-0.8s0.2-0.6,0.2-1c0.1-0.4,0.2-0.8,0.2-1.2c0.1-0.4,0.2-0.9,0.2-1.5c0-0.1,0-0.2,0-0.3
		c0,0.1,0,0.3,0.1,0.4c0.1,0.6,0.2,1,0.2,1.5c0.1,0.4,0.2,0.8,0.2,1.2s0.2,0.7,0.2,1c0.1,0.3,0.2,0.6,0.2,0.9
		c0.1,0.3,0.2,0.5,0.2,0.7c0.1,0.2,0.2,0.4,0.3,0.6c0.1,0.2,0.2,0.4,0.3,0.6c0.1,0.2,0.2,0.4,0.3,0.5c0.1,0.2,0.2,0.3,0.3,0.5
		c0.1,0.2,0.2,0.3,0.3,0.4c0.1,0.1,0.2,0.2,0.3,0.4c0.1,0.1,0.2,0.2,0.3,0.3c0.1,0.1,0.2,0.2,0.3,0.3c0.1,0.1,0.2,0.2,0.3,0.2
		c0.1,0.1,0.2,0.2,0.3,0.2c0.1,0.1,0.2,0.2,0.3,0.2l0.3,0.2c0.1,0.1,0.2,0.1,0.3,0.2c0.1,0.1,0.2,0.1,0.3,0.1c0.1,0,0.1,0.1,0.2,0.1
		l0.4,0.2c0.1,0,0.2,0.1,0.3,0.1c0.1,0,0.2,0.1,0.3,0.1l0.2,0.1c0,0,0.1,0,0.1,0l0.2,0.1c0.1,0,0.2,0.1,0.2,0.1
		c0.1,0,0.2,0.1,0.3,0.1l0.7,0.2c0,0,0.1,0,0.1,0l1.4,0.2c0,0,0.1,0,0.1,0l0.3,0c0,0,0.1,0,0.1,0h0.1c0,0,0.1,0,0.1,0l0.2,0
		c0,0,0,0,0.1,0l1.3,0.1c0.1,0,0.2,0,0.3,0l0.3,0c0,0,0.1,0,0.1,0h0.1c0,0,0.1,0,0.1,0l0.4,0c0.1,0,0.2,0,0.2,0l0.3,0"/>
	<path class="st0" d="M102.8,37.1v-1.9l17.4-28h2.7v27.7h5v2.2h-5v8.7h-2.3v-8.7L102.8,37.1L102.8,37.1z M120.7,34.9V10.9h-0.2
		l-14.8,23.9v0.2L120.7,34.9L120.7,34.9z"/>
	<path class="st0" d="M144.1,46.3c-2.1,0-3.9-0.4-5.5-1.3c-1.6-0.9-2.9-2.1-3.8-3.6c-0.9-1.5-1.4-3.3-1.4-5.2h2.3
		c0.1,2.3,0.9,4.2,2.4,5.7s3.6,2.2,6,2.2c1.9,0,3.5-0.5,5-1.4s2.6-2.2,3.4-3.7s1.2-3.3,1.2-5.3c0-2.1-0.4-3.9-1.3-5.5
		s-2.1-2.8-3.5-3.6s-3.1-1.3-4.9-1.3c-1.4,0-2.7,0.2-3.9,0.8s-2.3,1.2-3.1,2l-2.6-0.4l2.3-18.5h18.1v2.2h-16.1l-1.8,14.4h0.2
		c0.9-0.8,2-1.5,3.2-2s2.6-0.7,4.1-0.7c2.2,0,4.1,0.5,5.9,1.6s3.2,2.5,4.3,4.4s1.6,4.1,1.6,6.6c0,2.4-0.5,4.6-1.5,6.5
		c-1,1.9-2.4,3.4-4.2,4.5C148.4,45.8,146.4,46.3,144.1,46.3L144.1,46.3z"/>
	<path class="st0" d="M163.6,46c-0.6,0-1-0.2-1.4-0.6c-0.4-0.4-0.6-0.9-0.6-1.4s0.2-1,0.6-1.4c0.4-0.4,0.9-0.6,1.4-0.6
		s1,0.2,1.4,0.6c0.4,0.4,0.6,0.9,0.6,1.4c0,0.4-0.1,0.7-0.3,1c-0.2,0.3-0.4,0.5-0.7,0.7C164.3,45.9,164,46,163.6,46z"/>
	<path class="st0" d="M104.8,93.8V55.2h11.9c2.4,0,4.5,0.5,6.3,1.5s3.1,2.4,4,4.1c0.9,1.7,1.4,3.7,1.4,6s-0.5,4.2-1.4,5.9
		s-2.3,3.1-4,4.1s-3.8,1.5-6.3,1.5h-9.5v15.4L104.8,93.8L104.8,93.8z M107.1,76.2h9.5c2,0,3.7-0.4,5.1-1.2c1.4-0.8,2.5-1.9,3.2-3.3
		c0.8-1.4,1.1-3,1.1-4.8s-0.4-3.5-1.1-4.9c-0.8-1.4-1.8-2.5-3.2-3.3s-3.1-1.2-5.1-1.2h-9.5L107.1,76.2L107.1,76.2z"/>
	<path class="st0" d="M134.2,93.8V55.2h11.9c2.4,0,4.5,0.5,6.3,1.5s3.1,2.4,4,4.1c0.9,1.7,1.4,3.7,1.4,6s-0.5,4.2-1.4,5.9
		s-2.3,3.1-4,4.1s-3.8,1.5-6.3,1.5h-9.5v15.4L134.2,93.8L134.2,93.8z M136.6,76.2h9.5c2,0,3.7-0.4,5.1-1.2c1.4-0.8,2.5-1.9,3.2-3.3
		c0.8-1.4,1.1-3,1.1-4.8s-0.4-3.5-1.1-4.9c-0.8-1.4-1.8-2.5-3.2-3.3s-3.1-1.2-5.1-1.2h-9.5L136.6,76.2L136.6,76.2z"/>
	<path class="st0" d="M193.2,55.2v38.5h-2.3l-24.6-34.3h-0.2v34.3h-2.4V55.2h2.3l24.6,34.3h0.2V55.2H193.2z"/>
	<path class="st0" d="M201.8,55.2h2.6l14.9,35.2h0.3l14.9-35.2h2.6v38.5h-2.3v-33h-0.2l-13.9,33h-2.2l-13.9-33H204v33h-2.3
		L201.8,55.2L201.8,55.2z"/>
	<path class="st0" d="M245.5,93.8V55.2h11.9c2.4,0,4.5,0.5,6.3,1.4s3.1,2.3,4,4s1.4,3.6,1.4,5.9s-0.5,4.2-1.4,5.8
		c-0.9,1.7-2.3,3-4,3.9c-0.6,0.3-1.3,0.6-1.9,0.8l9.1,16.7h-2.7l-8.8-16.2c-0.6,0.1-1.3,0.1-2,0.1h-9.5v16.1L245.5,93.8L245.5,93.8z
		 M247.8,75.5h9.5c2,0,3.7-0.4,5.1-1.1c1.4-0.7,2.5-1.8,3.2-3.1c0.8-1.3,1.1-2.9,1.1-4.7s-0.4-3.4-1.1-4.8s-1.8-2.4-3.2-3.2
		c-1.4-0.8-3.1-1.1-5.1-1.1h-9.5L247.8,75.5L247.8,75.5z"/>
	<path class="st1" d="M275.5,93.8v-2.6L288.1,77c1.6-1.9,3-3.4,4-4.8s1.7-2.5,2.2-3.7s0.7-2.3,0.7-3.5c0-1.5-0.3-2.8-1-3.8
		c-0.7-1.1-1.6-2-2.8-2.6c-1.2-0.6-2.5-0.9-4-0.9c-1.6,0-3,0.3-4.1,1s-2.1,1.6-2.8,2.8c-0.6,1.2-1,2.5-1,4.1h-3.4
		c0-2.1,0.5-4,1.5-5.7c1-1.7,2.3-3,4-3.9c1.7-0.9,3.6-1.4,5.8-1.4s4,0.5,5.7,1.4c1.7,0.9,3,2.2,3.9,3.8c1,1.6,1.4,3.3,1.4,5.3
		c0,1.4-0.2,2.8-0.7,4.1c-0.5,1.3-1.4,2.8-2.5,4.4c-1.2,1.6-2.9,3.6-5,6l-9.6,10.7v0.2h19.1v3.2H275.5z"/>
	<path class="st1" d="M316.3,94.3c-2.7,0-5-0.8-6.9-2.3c-1.9-1.6-3.4-3.8-4.4-6.8c-1-3-1.5-6.5-1.5-10.7s0.5-7.7,1.5-10.6
		c1-3,2.5-5.2,4.4-6.8c1.9-1.6,4.2-2.4,6.9-2.4s5,0.8,6.9,2.4c1.9,1.6,3.4,3.8,4.4,6.8c1,3,1.5,6.5,1.5,10.6s-0.5,7.7-1.5,10.7
		s-2.5,5.2-4.4,6.8C321.3,93.5,319,94.3,316.3,94.3L316.3,94.3z M316.3,91.1c3,0,5.3-1.4,7-4.4c1.7-2.9,2.5-7,2.5-12.3
		c0-3.5-0.4-6.5-1.1-9c-0.8-2.5-1.8-4.4-3.3-5.7c-1.4-1.3-3.1-2-5.1-2c-3,0-5.3,1.5-7,4.4c-1.7,2.9-2.5,7-2.5,12.3
		c0,3.5,0.4,6.5,1.1,9c0.8,2.5,1.8,4.4,3.3,5.7C312.6,90.5,314.3,91.1,316.3,91.1L316.3,91.1z"/>
	<path class="st1" d="M333.5,93.8v-2.6L346.1,77c1.6-1.9,3-3.4,4-4.8s1.7-2.5,2.2-3.7s0.7-2.3,0.7-3.5c0-1.5-0.3-2.8-1-3.8
		c-0.7-1.1-1.6-2-2.8-2.6c-1.2-0.6-2.5-0.9-4-0.9c-1.6,0-3,0.3-4.1,1s-2.1,1.6-2.8,2.8c-0.6,1.2-1,2.5-1,4.1h-3.4
		c0-2.1,0.5-4,1.5-5.7c1-1.7,2.3-3,4-3.9c1.7-0.9,3.6-1.4,5.8-1.4s4,0.5,5.7,1.4c1.7,0.9,3,2.2,3.9,3.8c1,1.6,1.4,3.3,1.4,5.3
		c0,1.4-0.2,2.8-0.7,4.1c-0.5,1.3-1.4,2.8-2.5,4.4c-1.2,1.6-2.9,3.6-5,6l-9.6,10.7v0.2h19.1v3.2H333.5z"/>
	<path class="st1" d="M360.1,85.5v-2.9l17.2-27.4h4.2v27.1h5.1v3.2h-5.1v8.3h-3.4v-8.3H360.1z M378.1,82.3V60h-0.3l-13.8,22.1v0.2
		H378.1z"/>
	<path class="st1" d="M1.2,110.4v-8.7H4c0.6,0,1.1,0.1,1.5,0.4c0.4,0.2,0.7,0.6,0.9,1c0.2,0.4,0.3,0.9,0.3,1.4s-0.1,1-0.3,1.4
		c-0.2,0.4-0.5,0.7-0.9,1s-0.9,0.4-1.5,0.4H2v3.3C2,110.4,1.2,110.4,1.2,110.4z M2,106.4h2c0.5,0,0.8-0.1,1.1-0.3s0.5-0.4,0.7-0.7
		c0.2-0.3,0.2-0.6,0.2-1s-0.1-0.7-0.2-1c-0.2-0.3-0.4-0.5-0.7-0.7c-0.3-0.2-0.7-0.3-1.2-0.3H2V106.4L2,106.4z"/>
	<path class="st1" d="M8.1,110.4v-6.6h0.7v1h0.1c0.1-0.3,0.4-0.6,0.7-0.8s0.7-0.3,1.1-0.3c0.1,0,0.1,0,0.2,0s0.1,0,0.2,0v0.8
		c0,0-0.1,0-0.2,0c-0.1,0-0.2,0-0.3,0c-0.3,0-0.6,0.1-0.9,0.2s-0.5,0.3-0.6,0.6c-0.1,0.2-0.2,0.5-0.2,0.9v4.2L8.1,110.4L8.1,110.4z"
		/>
	<path class="st1" d="M13.8,110.6c-0.4,0-0.8-0.1-1.1-0.2c-0.3-0.2-0.6-0.4-0.8-0.7s-0.3-0.7-0.3-1.1c0-0.3,0.1-0.6,0.2-0.8
		s0.3-0.4,0.5-0.5s0.5-0.2,0.8-0.3c0.3-0.1,0.6-0.2,1-0.2c0.4-0.1,0.7-0.1,0.9-0.1c0.2,0,0.4-0.1,0.6-0.2c0.1-0.1,0.2-0.2,0.2-0.4
		v-0.2c0-0.4-0.1-0.8-0.4-1.1s-0.6-0.4-1.1-0.4s-0.9,0.1-1.1,0.3c-0.3,0.2-0.5,0.4-0.6,0.7l-0.7-0.3c0.1-0.4,0.4-0.6,0.6-0.9
		c0.3-0.2,0.6-0.4,0.9-0.5c0.3-0.1,0.6-0.1,1-0.1c0.2,0,0.5,0,0.8,0.1c0.3,0.1,0.5,0.2,0.8,0.3s0.4,0.4,0.6,0.7
		c0.1,0.3,0.2,0.7,0.2,1.1v4.4h-0.8v-1h-0.1c-0.1,0.2-0.2,0.4-0.4,0.6s-0.4,0.3-0.7,0.4S14.2,110.6,13.8,110.6L13.8,110.6z
		 M13.9,109.9c0.4,0,0.8-0.1,1.1-0.3s0.5-0.4,0.7-0.7s0.2-0.6,0.2-1V107c-0.1,0.1-0.1,0.1-0.3,0.1s-0.3,0.1-0.5,0.1
		c-0.2,0-0.3,0.1-0.5,0.1c-0.2,0-0.3,0-0.5,0.1c-0.4,0.1-0.7,0.1-0.9,0.2c-0.3,0.1-0.5,0.2-0.6,0.4s-0.2,0.4-0.2,0.7
		c0,0.4,0.1,0.7,0.4,0.9C13.1,109.8,13.5,109.9,13.9,109.9L13.9,109.9z"/>
	<path class="st1" d="M18.3,110.4v-8.7h0.8v5.3h0.1l3.1-3.1h1l-2.8,2.8l3,3.7h-1l-2.6-3.2l-0.8,0.7v2.5H18.3z"/>
	<path class="st1" d="M27.1,103.9v0.7h-1.4v4.2c0,0.3,0,0.5,0.1,0.6s0.2,0.3,0.4,0.3c0.1,0.1,0.3,0.1,0.5,0.1c0.1,0,0.2,0,0.3,0
		c0.1,0,0.1,0,0.2,0l0.2,0.7c-0.1,0-0.2,0.1-0.3,0.1c-0.1,0-0.2,0-0.4,0c-0.3,0-0.5-0.1-0.8-0.2c-0.3-0.1-0.5-0.3-0.6-0.6
		c-0.2-0.2-0.2-0.5-0.2-0.9v-4.3h-1v-0.7h1v-1.6h0.8v1.6L27.1,103.9L27.1,103.9z"/>
	<path class="st1" d="M28.9,102.8c-0.2,0-0.3-0.1-0.4-0.2s-0.2-0.2-0.2-0.4s0.1-0.3,0.2-0.4s0.2-0.2,0.4-0.2s0.3,0.1,0.4,0.2
		s0.2,0.2,0.2,0.4s-0.1,0.3-0.2,0.4S29,102.8,28.9,102.8z M28.5,110.4v-6.6h0.8v6.6H28.5z"/>
	<path class="st1" d="M35.3,105.3l-0.7,0.2c-0.1-0.2-0.2-0.4-0.3-0.5s-0.3-0.3-0.5-0.4s-0.5-0.1-0.7-0.1c-0.4,0-0.8,0.1-1.1,0.3
		s-0.4,0.5-0.4,0.8c0,0.3,0.1,0.5,0.3,0.7c0.2,0.2,0.5,0.3,0.9,0.4l1,0.2c0.5,0.1,1,0.3,1.2,0.6s0.4,0.7,0.4,1.1
		c0,0.4-0.1,0.7-0.3,1s-0.5,0.5-0.8,0.7c-0.4,0.2-0.8,0.2-1.3,0.2c-0.6,0-1.2-0.1-1.6-0.4s-0.7-0.7-0.8-1.2l0.7-0.2
		c0.1,0.4,0.3,0.7,0.5,0.9s0.6,0.3,1.1,0.3c0.5,0,0.9-0.1,1.2-0.3c0.3-0.2,0.5-0.5,0.5-0.8c0-0.3-0.1-0.5-0.3-0.7
		c-0.2-0.2-0.4-0.3-0.8-0.4l-1.1-0.3c-0.6-0.1-1-0.3-1.3-0.7s-0.4-0.7-0.4-1.1c0-0.4,0.1-0.7,0.3-0.9c0.2-0.3,0.5-0.5,0.8-0.7
		s0.7-0.2,1.2-0.2c0.6,0,1.1,0.1,1.4,0.4C34.8,104.5,35.1,104.8,35.3,105.3z"/>
	<path class="st1" d="M39.2,110.6c-0.6,0-1.1-0.2-1.5-0.4c-0.4-0.3-0.8-0.7-1-1.2c-0.2-0.5-0.4-1.1-0.4-1.7s0.1-1.2,0.4-1.8
		s0.6-0.9,1-1.2c0.4-0.3,0.9-0.4,1.5-0.4c0.4,0,0.8,0.1,1.2,0.2c0.3,0.2,0.7,0.4,0.9,0.7c0.2,0.3,0.4,0.7,0.4,1.1h-0.8
		c-0.1-0.4-0.3-0.7-0.6-0.9s-0.7-0.4-1.2-0.4c-0.4,0-0.8,0.1-1.1,0.3c-0.3,0.2-0.6,0.5-0.8,0.9s-0.3,0.9-0.3,1.4s0.1,1,0.3,1.4
		c0.2,0.4,0.4,0.7,0.7,1c0.3,0.2,0.7,0.3,1.1,0.3c0.3,0,0.5-0.1,0.8-0.2s0.4-0.3,0.6-0.5c0.2-0.2,0.3-0.4,0.3-0.7h0.8
		c-0.1,0.4-0.2,0.8-0.4,1.1c-0.2,0.3-0.5,0.6-0.9,0.7C40.1,110.5,39.6,110.6,39.2,110.6L39.2,110.6z"/>
	<path class="st1" d="M43.8,106.3v4.1H43v-8.7h0.8v3.2h0.1c0.2-0.3,0.4-0.6,0.7-0.8s0.7-0.3,1.2-0.3c0.4,0,0.8,0.1,1.2,0.3
		c0.3,0.2,0.6,0.4,0.8,0.8c0.2,0.4,0.3,0.8,0.3,1.3v4.2h-0.8v-4.2c0-0.5-0.2-1-0.5-1.3c-0.3-0.3-0.7-0.5-1.2-0.5
		c-0.3,0-0.7,0.1-0.9,0.2s-0.5,0.4-0.7,0.6S43.8,106,43.8,106.3L43.8,106.3z"/>
	<path class="st1" d="M52.3,110.6c-0.6,0-1.1-0.1-1.6-0.4s-0.8-0.7-1-1.2c-0.2-0.5-0.4-1.1-0.4-1.8s0.1-1.2,0.4-1.8s0.6-0.9,1-1.2
		s0.9-0.4,1.5-0.4c0.3,0,0.7,0.1,1,0.2c0.3,0.1,0.6,0.3,0.9,0.6s0.5,0.6,0.6,1c0.2,0.4,0.2,0.9,0.2,1.4v0.4h-4.9
		c0,0.5,0.1,0.9,0.3,1.3c0.2,0.4,0.4,0.7,0.8,0.9s0.7,0.3,1.2,0.3c0.3,0,0.6-0.1,0.8-0.1s0.4-0.2,0.6-0.4c0.2-0.2,0.3-0.3,0.4-0.5
		l0.7,0.2c-0.1,0.3-0.3,0.5-0.5,0.8c-0.2,0.2-0.5,0.4-0.8,0.6C53.1,110.5,52.7,110.6,52.3,110.6L52.3,110.6z M50.1,106.7h4.1
		c0-0.4-0.1-0.8-0.2-1.1s-0.4-0.6-0.7-0.8s-0.7-0.3-1-0.3c-0.4,0-0.8,0.1-1.1,0.3s-0.6,0.5-0.7,0.9C50.2,106,50.1,106.4,50.1,106.7z
		"/>
	<path class="st1" d="M59.6,110.4v-8.7h2.8c0.6,0,1.1,0.1,1.5,0.4c0.4,0.2,0.7,0.6,0.9,1c0.2,0.4,0.3,0.9,0.3,1.4s-0.1,1-0.3,1.4
		c-0.2,0.4-0.5,0.7-0.9,1c-0.4,0.2-0.9,0.4-1.5,0.4h-2v3.3H59.6L59.6,110.4z M60.4,106.4h2c0.5,0,0.8-0.1,1.1-0.3s0.5-0.4,0.7-0.7
		c0.2-0.3,0.2-0.6,0.2-1s-0.1-0.7-0.2-1c-0.2-0.3-0.4-0.5-0.7-0.7s-0.7-0.3-1.2-0.3h-2L60.4,106.4L60.4,106.4z"/>
	<path class="st1" d="M66.5,110.4v-6.6h0.7v1h0.1c0.1-0.3,0.4-0.6,0.7-0.8s0.7-0.3,1.1-0.3c0.1,0,0.1,0,0.2,0s0.1,0,0.2,0v0.8
		c0,0-0.1,0-0.2,0c-0.1,0-0.2,0-0.3,0c-0.3,0-0.6,0.1-0.9,0.2s-0.5,0.3-0.6,0.6c-0.2,0.2-0.2,0.5-0.2,0.9v4.2L66.5,110.4L66.5,110.4
		z"/>
	<path class="st1" d="M72.8,110.6c-0.6,0-1.1-0.1-1.5-0.4c-0.4-0.3-0.8-0.7-1-1.2c-0.2-0.5-0.4-1.1-0.4-1.8s0.1-1.3,0.4-1.8
		s0.6-0.9,1-1.2c0.4-0.3,0.9-0.4,1.5-0.4s1.1,0.1,1.5,0.4c0.4,0.3,0.8,0.7,1,1.2s0.4,1.1,0.4,1.8s-0.1,1.2-0.4,1.8
		c-0.2,0.5-0.6,0.9-1,1.2C73.9,110.4,73.4,110.6,72.8,110.6z M72.8,109.9c0.4,0,0.8-0.1,1.2-0.4s0.6-0.6,0.7-1
		c0.2-0.4,0.2-0.8,0.2-1.3s-0.1-0.9-0.2-1.3c-0.2-0.4-0.4-0.7-0.7-1s-0.7-0.4-1.2-0.4s-0.8,0.1-1.2,0.4c-0.3,0.2-0.6,0.6-0.7,1
		c-0.2,0.4-0.2,0.9-0.2,1.3s0.1,0.9,0.2,1.3c0.2,0.4,0.4,0.7,0.7,1S72.4,109.9,72.8,109.9z"/>
	<path class="st1" d="M77.1,110.4v-8.7h0.8v3.4H78c0.1-0.2,0.2-0.4,0.4-0.6s0.4-0.4,0.6-0.5s0.6-0.2,1-0.2c0.5,0,1,0.1,1.4,0.4
		c0.4,0.3,0.7,0.7,0.9,1.2c0.2,0.5,0.3,1.1,0.3,1.8s-0.1,1.3-0.3,1.8c-0.2,0.5-0.5,0.9-0.9,1.2s-0.9,0.4-1.4,0.4
		c-0.4,0-0.7-0.1-1-0.2s-0.5-0.3-0.6-0.5c-0.2-0.2-0.3-0.4-0.4-0.6h-0.1v1.2L77.1,110.4L77.1,110.4z M77.9,107.2
		c0,0.5,0.1,1,0.2,1.4s0.4,0.7,0.7,1c0.3,0.2,0.7,0.3,1.1,0.3s0.8-0.1,1.1-0.4s0.5-0.6,0.7-1c0.2-0.4,0.2-0.9,0.2-1.4
		s-0.1-1-0.2-1.4s-0.4-0.7-0.7-1s-0.7-0.4-1.1-0.4s-0.8,0.1-1.1,0.3s-0.5,0.5-0.7,0.9C78,106.2,77.9,106.6,77.9,107.2L77.9,107.2z"
		/>
	<path class="st1" d="M84.8,101.7v8.7h-0.8v-8.7C84.1,101.7,84.8,101.7,84.8,101.7z"/>
	<path class="st1" d="M89.2,110.6c-0.6,0-1.1-0.1-1.6-0.4s-0.8-0.7-1-1.2s-0.4-1.1-0.4-1.8s0.1-1.2,0.4-1.8s0.6-0.9,1-1.2
		s0.9-0.4,1.5-0.4c0.3,0,0.7,0.1,1,0.2c0.3,0.1,0.6,0.3,0.9,0.6s0.5,0.6,0.6,1s0.2,0.9,0.2,1.4v0.4h-4.9c0,0.5,0.1,0.9,0.3,1.3
		c0.2,0.4,0.4,0.7,0.8,0.9s0.7,0.3,1.2,0.3c0.3,0,0.6-0.1,0.8-0.1s0.4-0.2,0.6-0.4c0.2-0.2,0.3-0.3,0.4-0.5l0.7,0.2
		c-0.1,0.3-0.3,0.5-0.5,0.8c-0.2,0.2-0.5,0.4-0.8,0.6C90,110.5,89.6,110.6,89.2,110.6L89.2,110.6z M87,106.7h4.1
		c0-0.4-0.1-0.8-0.2-1.1s-0.4-0.6-0.7-0.8s-0.7-0.3-1-0.3c-0.4,0-0.8,0.1-1.1,0.3s-0.6,0.5-0.7,0.9C87.1,106,87,106.4,87,106.7z"/>
	<path class="st1" d="M93.2,110.4v-6.6h0.7v1H94c0.1-0.3,0.3-0.6,0.7-0.8c0.3-0.2,0.7-0.3,1.1-0.3c0.4,0,0.8,0.1,1.1,0.3
		s0.5,0.5,0.7,0.9h0.1c0.2-0.4,0.4-0.7,0.7-0.9c0.3-0.2,0.7-0.3,1.2-0.3c0.6,0,1.1,0.2,1.4,0.6c0.3,0.4,0.5,0.9,0.5,1.7v4.4h-0.8
		V106c0-0.5-0.1-0.9-0.4-1.2c-0.3-0.3-0.6-0.4-1-0.4c-0.5,0-0.9,0.2-1.2,0.5c-0.3,0.3-0.4,0.7-0.4,1.2v4.3h-0.8V106
		c0-0.4-0.1-0.8-0.4-1.1s-0.6-0.4-1-0.4c-0.3,0-0.6,0.1-0.8,0.2s-0.4,0.3-0.6,0.6c-0.1,0.3-0.2,0.6-0.2,0.9v4.2L93.2,110.4
		L93.2,110.4z"/>
	<path class="st1" d="M105.8,110.6c-0.6,0-1.1-0.1-1.6-0.4s-0.8-0.7-1-1.2s-0.4-1.1-0.4-1.8s0.1-1.2,0.4-1.8s0.6-0.9,1-1.2
		s0.9-0.4,1.5-0.4c0.3,0,0.7,0.1,1,0.2c0.3,0.1,0.6,0.3,0.9,0.6s0.5,0.6,0.6,1s0.2,0.9,0.2,1.4v0.4h-4.9c0,0.5,0.1,0.9,0.3,1.3
		c0.2,0.4,0.4,0.7,0.8,0.9s0.7,0.3,1.2,0.3c0.3,0,0.6-0.1,0.8-0.1s0.4-0.2,0.6-0.4c0.2-0.2,0.3-0.3,0.4-0.5l0.7,0.2
		c-0.1,0.3-0.3,0.5-0.5,0.8c-0.2,0.2-0.5,0.4-0.8,0.6C106.6,110.5,106.2,110.6,105.8,110.6L105.8,110.6z M103.6,106.7h4.1
		c0-0.4-0.1-0.8-0.2-1.1s-0.4-0.6-0.7-0.8s-0.7-0.3-1-0.3c-0.4,0-0.8,0.1-1.1,0.3s-0.6,0.5-0.7,0.9
		C103.7,106,103.6,106.4,103.6,106.7z"/>
	<path class="st1" d="M115.2,110.6c-0.5,0-1-0.1-1.4-0.4s-0.7-0.7-0.9-1.2c-0.2-0.5-0.3-1.1-0.3-1.8s0.1-1.3,0.3-1.8
		c0.2-0.5,0.5-0.9,0.9-1.2c0.4-0.3,0.9-0.4,1.4-0.4c0.4,0,0.7,0.1,1,0.2s0.5,0.3,0.6,0.5c0.2,0.2,0.3,0.4,0.4,0.6h0.1v-3.4h0.8v8.7
		h-0.7v-1.2h-0.1c-0.1,0.2-0.2,0.4-0.4,0.6c-0.2,0.2-0.4,0.4-0.6,0.5C116,110.5,115.6,110.6,115.2,110.6L115.2,110.6z M115.3,109.9
		c0.4,0,0.8-0.1,1.1-0.3s0.5-0.6,0.7-1s0.2-0.9,0.2-1.4s-0.1-1-0.2-1.4c-0.2-0.4-0.4-0.7-0.7-0.9s-0.7-0.3-1.1-0.3s-0.8,0.1-1.1,0.4
		s-0.5,0.6-0.7,1s-0.2,0.9-0.2,1.4s0.1,1,0.2,1.4c0.2,0.4,0.4,0.7,0.7,1S114.9,109.9,115.3,109.9L115.3,109.9z"/>
	<path class="st1" d="M122.5,110.6c-0.6,0-1.1-0.1-1.6-0.4s-0.8-0.7-1-1.2s-0.4-1.1-0.4-1.8s0.1-1.2,0.4-1.8s0.6-0.9,1-1.2
		s0.9-0.4,1.5-0.4c0.3,0,0.7,0.1,1,0.2c0.3,0.1,0.6,0.3,0.9,0.6s0.5,0.6,0.6,1s0.2,0.9,0.2,1.4v0.4h-4.9c0,0.5,0.1,0.9,0.3,1.3
		c0.2,0.4,0.4,0.7,0.8,0.9s0.7,0.3,1.2,0.3c0.3,0,0.6-0.1,0.8-0.1s0.4-0.2,0.6-0.4c0.2-0.2,0.3-0.3,0.4-0.5l0.7,0.2
		c-0.1,0.3-0.3,0.5-0.5,0.8c-0.2,0.2-0.5,0.4-0.8,0.6C123.3,110.5,122.9,110.6,122.5,110.6L122.5,110.6z M120.3,106.7h4.1
		c0-0.4-0.1-0.8-0.2-1.1s-0.4-0.6-0.7-0.8s-0.7-0.3-1-0.3c-0.4,0-0.8,0.1-1.1,0.3s-0.6,0.5-0.7,0.9
		C120.4,106,120.3,106.4,120.3,106.7z"/>
	<path class="st1" d="M126.5,110.4v-6.6h0.7v1h0.1c0.1-0.3,0.4-0.6,0.7-0.8s0.7-0.3,1.1-0.3c0.1,0,0.1,0,0.2,0s0.1,0,0.2,0v0.8
		c0,0-0.1,0-0.2,0c-0.1,0-0.2,0-0.3,0c-0.3,0-0.6,0.1-0.9,0.2s-0.5,0.3-0.6,0.6c-0.2,0.2-0.2,0.5-0.2,0.9v4.2L126.5,110.4
		L126.5,110.4z"/>
	<path class="st1" d="M133.7,110.4v-8.7h0.8v4.7h0.1l4.3-4.7h1.1l-3.7,4l3.7,4.7h-1l-3.2-4.1l-1.2,1.3v2.8L133.7,110.4L133.7,110.4z
		"/>
	<path class="st1" d="M143.2,110.6c-0.6,0-1.1-0.1-1.6-0.4s-0.8-0.7-1-1.2s-0.4-1.1-0.4-1.8s0.1-1.2,0.4-1.8s0.6-0.9,1-1.2
		s0.9-0.4,1.5-0.4c0.4,0,0.7,0.1,1,0.2c0.3,0.1,0.6,0.3,0.9,0.6s0.5,0.6,0.6,1s0.2,0.9,0.2,1.4v0.4h-4.9c0,0.5,0.1,0.9,0.3,1.3
		c0.2,0.4,0.4,0.7,0.8,0.9s0.7,0.3,1.2,0.3c0.3,0,0.6-0.1,0.8-0.1s0.4-0.2,0.6-0.4c0.2-0.2,0.3-0.3,0.4-0.5l0.7,0.2
		c-0.1,0.3-0.3,0.5-0.5,0.8c-0.2,0.2-0.5,0.4-0.8,0.6C144,110.5,143.6,110.6,143.2,110.6L143.2,110.6z M140.9,106.7h4.1
		c0-0.4-0.1-0.8-0.2-1.1s-0.4-0.6-0.7-0.8s-0.6-0.3-1-0.3c-0.4,0-0.8,0.1-1.1,0.3s-0.6,0.5-0.7,0.9C141.1,106,141,106.4,140.9,106.7
		z"/>
	<path class="st1" d="M147.2,110.4v-6.6h0.7v1h0.1c0.1-0.3,0.4-0.6,0.7-0.8s0.7-0.3,1.1-0.3c0.1,0,0.1,0,0.2,0s0.1,0,0.2,0v0.8
		c0,0-0.1,0-0.2,0c-0.1,0-0.2,0-0.3,0c-0.3,0-0.6,0.1-0.9,0.2s-0.5,0.3-0.6,0.6c-0.1,0.2-0.2,0.5-0.2,0.9v4.2L147.2,110.4
		L147.2,110.4z"/>
	<path class="st1" d="M151.9,106.3v4.1h-0.8v-6.6h0.7v1h0.1c0.1-0.3,0.4-0.6,0.7-0.8s0.7-0.3,1.2-0.3c0.4,0,0.8,0.1,1.2,0.3
		c0.3,0.2,0.6,0.4,0.8,0.8c0.2,0.3,0.3,0.8,0.3,1.3v4.2h-0.8v-4.2c0-0.5-0.1-1-0.4-1.3s-0.7-0.5-1.2-0.5c-0.3,0-0.6,0.1-0.9,0.2
		s-0.5,0.4-0.6,0.6C152,105.6,151.9,106,151.9,106.3L151.9,106.3z"/>
	<path class="st1" d="M157.8,110.4v-6.6h0.7v1h0.1c0.1-0.3,0.4-0.6,0.7-0.8s0.7-0.3,1.1-0.3c0.1,0,0.1,0,0.2,0s0.1,0,0.2,0v0.8
		c0,0-0.1,0-0.2,0c-0.1,0-0.2,0-0.3,0c-0.3,0-0.6,0.1-0.9,0.2s-0.5,0.3-0.6,0.6c-0.1,0.2-0.2,0.5-0.2,0.9v4.2L157.8,110.4
		L157.8,110.4z"/>
	<path class="st1" d="M164.2,110.6c-0.6,0-1.1-0.1-1.6-0.4s-0.8-0.7-1-1.2s-0.4-1.1-0.4-1.8s0.1-1.2,0.4-1.8s0.6-0.9,1-1.2
		s0.9-0.4,1.5-0.4c0.4,0,0.7,0.1,1,0.2c0.3,0.1,0.6,0.3,0.9,0.6s0.5,0.6,0.6,1s0.2,0.9,0.2,1.4v0.4H162c0,0.5,0.1,0.9,0.3,1.3
		c0.2,0.4,0.4,0.7,0.8,0.9s0.7,0.3,1.2,0.3c0.3,0,0.6-0.1,0.8-0.1s0.4-0.2,0.6-0.4c0.2-0.2,0.3-0.3,0.4-0.5l0.7,0.2
		c-0.1,0.3-0.3,0.5-0.5,0.8c-0.2,0.2-0.5,0.4-0.8,0.6C165,110.5,164.7,110.6,164.2,110.6L164.2,110.6z M162,106.7h4.1
		c0-0.4-0.1-0.8-0.2-1.1s-0.4-0.6-0.7-0.8s-0.6-0.3-1-0.3c-0.4,0-0.8,0.1-1.1,0.3s-0.6,0.5-0.7,0.9C162.1,106,162,106.4,162,106.7z"
		/>
	<path class="st1" d="M172.6,105.3l-0.7,0.2c-0.1-0.2-0.2-0.4-0.3-0.5s-0.3-0.3-0.5-0.4s-0.4-0.1-0.7-0.1c-0.4,0-0.8,0.1-1.1,0.3
		s-0.4,0.5-0.4,0.8c0,0.3,0.1,0.5,0.3,0.7c0.2,0.2,0.5,0.3,0.9,0.4l1,0.2c0.6,0.1,1,0.3,1.2,0.6c0.3,0.3,0.4,0.7,0.4,1.1
		c0,0.4-0.1,0.7-0.3,1s-0.5,0.5-0.9,0.7c-0.4,0.2-0.8,0.2-1.3,0.2c-0.6,0-1.2-0.1-1.6-0.4s-0.7-0.7-0.8-1.2l0.7-0.2
		c0.1,0.4,0.3,0.7,0.6,0.9s0.6,0.3,1.1,0.3c0.5,0,0.9-0.1,1.2-0.3c0.3-0.2,0.4-0.5,0.4-0.8c0-0.3-0.1-0.5-0.3-0.7
		c-0.2-0.2-0.4-0.3-0.8-0.4l-1.1-0.3c-0.6-0.1-1-0.3-1.3-0.7s-0.4-0.7-0.4-1.1c0-0.4,0.1-0.7,0.3-0.9c0.2-0.3,0.5-0.5,0.8-0.7
		s0.7-0.2,1.2-0.2c0.6,0,1.1,0.1,1.4,0.4C172.1,104.5,172.4,104.8,172.6,105.3L172.6,105.3z"/>
	<path class="st1" d="M176.5,110.6c-0.6,0-1.1-0.1-1.5-0.4c-0.4-0.3-0.8-0.7-1-1.2c-0.2-0.5-0.4-1.1-0.4-1.8s0.1-1.3,0.4-1.8
		s0.6-0.9,1-1.2c0.4-0.3,0.9-0.4,1.5-0.4s1.1,0.1,1.5,0.4c0.4,0.3,0.8,0.7,1,1.2s0.4,1.1,0.4,1.8s-0.1,1.2-0.4,1.8
		c-0.2,0.5-0.6,0.9-1,1.2C177.6,110.4,177.1,110.6,176.5,110.6z M176.5,109.9c0.4,0,0.8-0.1,1.1-0.4s0.6-0.6,0.7-1
		c0.2-0.4,0.2-0.8,0.2-1.3s-0.1-0.9-0.2-1.3c-0.2-0.4-0.4-0.7-0.7-1s-0.7-0.4-1.1-0.4s-0.8,0.1-1.1,0.4c-0.3,0.2-0.6,0.6-0.7,1
		c-0.2,0.4-0.2,0.9-0.2,1.3s0.1,0.9,0.2,1.3c0.2,0.4,0.4,0.7,0.7,1S176.1,109.9,176.5,109.9z"/>
	<path class="st1" d="M181.5,106.3v4.1h-0.8v-6.6h0.7v1h0.1c0.1-0.3,0.4-0.6,0.7-0.8s0.7-0.3,1.2-0.3c0.4,0,0.8,0.1,1.2,0.3
		c0.3,0.2,0.6,0.4,0.8,0.8c0.2,0.3,0.3,0.8,0.3,1.3v4.2h-0.8v-4.2c0-0.5-0.1-1-0.4-1.3s-0.7-0.5-1.2-0.5c-0.3,0-0.6,0.1-0.9,0.2
		s-0.5,0.4-0.6,0.6C181.6,105.6,181.5,106,181.5,106.3L181.5,106.3z"/>
	<path class="st1" d="M189.2,110.6c-0.4,0-0.8-0.1-1.1-0.2c-0.3-0.2-0.6-0.4-0.8-0.7s-0.3-0.7-0.3-1.1c0-0.3,0.1-0.6,0.2-0.8
		s0.3-0.4,0.5-0.5s0.5-0.2,0.8-0.3c0.3-0.1,0.6-0.2,1-0.2c0.4-0.1,0.7-0.1,0.9-0.1c0.2,0,0.4-0.1,0.6-0.2c0.1-0.1,0.2-0.2,0.2-0.4
		v-0.2c0-0.4-0.1-0.8-0.4-1.1s-0.6-0.4-1.1-0.4s-0.9,0.1-1.1,0.3c-0.3,0.2-0.5,0.4-0.6,0.7l-0.7-0.3c0.1-0.4,0.4-0.6,0.6-0.9
		c0.3-0.2,0.6-0.4,0.9-0.5c0.3-0.1,0.6-0.1,1-0.1c0.2,0,0.5,0,0.8,0.1s0.5,0.2,0.8,0.3s0.4,0.4,0.6,0.7c0.1,0.3,0.2,0.7,0.2,1.1v4.4
		h-0.8v-1h-0.1c-0.1,0.2-0.2,0.4-0.4,0.6s-0.4,0.3-0.7,0.4S189.5,110.6,189.2,110.6L189.2,110.6z M189.3,109.9
		c0.4,0,0.8-0.1,1.1-0.3s0.5-0.4,0.7-0.7s0.2-0.6,0.2-1V107c-0.1,0.1-0.1,0.1-0.3,0.1s-0.3,0.1-0.5,0.1c-0.2,0-0.3,0.1-0.5,0.1
		c-0.2,0-0.3,0-0.5,0.1c-0.4,0.1-0.7,0.1-0.9,0.2c-0.3,0.1-0.5,0.2-0.6,0.4s-0.2,0.4-0.2,0.7c0,0.4,0.1,0.7,0.4,0.9
		C188.5,109.8,188.8,109.9,189.3,109.9L189.3,109.9z"/>
	<path class="st1" d="M194.4,106.3v4.1h-0.8v-6.6h0.7v1h0.1c0.1-0.3,0.4-0.6,0.7-0.8s0.7-0.3,1.2-0.3c0.4,0,0.8,0.1,1.2,0.3
		c0.3,0.2,0.6,0.4,0.8,0.8c0.2,0.3,0.3,0.8,0.3,1.3v4.2h-0.8v-4.2c0-0.5-0.1-1-0.4-1.3s-0.7-0.5-1.2-0.5c-0.3,0-0.6,0.1-0.9,0.2
		s-0.5,0.4-0.6,0.6C194.5,105.6,194.4,106,194.4,106.3L194.4,106.3z"/>
	<path class="st1" d="M199.9,110.4v-0.6l3.8-5.2v-0.1h-3.6v-0.7h4.6v0.6l-3.7,5.2v0.1h3.9v0.7L199.9,110.4L199.9,110.4z"/>
	<path class="st1" d="M210.4,105.3l-0.7,0.2c-0.1-0.2-0.2-0.4-0.3-0.5s-0.3-0.3-0.5-0.4s-0.4-0.1-0.7-0.1c-0.4,0-0.8,0.1-1.1,0.3
		s-0.4,0.5-0.4,0.8c0,0.3,0.1,0.5,0.3,0.7c0.2,0.2,0.5,0.3,0.9,0.4l1,0.2c0.6,0.1,1,0.3,1.2,0.6c0.3,0.3,0.4,0.7,0.4,1.1
		c0,0.4-0.1,0.7-0.3,1s-0.5,0.5-0.9,0.7c-0.4,0.2-0.8,0.2-1.3,0.2c-0.6,0-1.2-0.1-1.6-0.4s-0.7-0.7-0.8-1.2l0.7-0.2
		c0.1,0.4,0.3,0.7,0.6,0.9s0.6,0.3,1.1,0.3c0.5,0,0.9-0.1,1.2-0.3c0.3-0.2,0.4-0.5,0.4-0.8c0-0.3-0.1-0.5-0.3-0.7
		c-0.2-0.2-0.4-0.3-0.8-0.4l-1.1-0.3c-0.6-0.1-1-0.3-1.3-0.7s-0.4-0.7-0.4-1.1c0-0.4,0.1-0.7,0.3-0.9c0.2-0.3,0.5-0.5,0.8-0.7
		s0.7-0.2,1.2-0.2c0.6,0,1.1,0.1,1.4,0.4C210,104.5,210.2,104.8,210.4,105.3L210.4,105.3z"/>
	<path class="st1" d="M211.8,112.9v-9h0.7v1.2h0.1c0.1-0.2,0.2-0.4,0.4-0.6s0.4-0.4,0.6-0.5c0.3-0.1,0.6-0.2,1-0.2
		c0.5,0,1,0.1,1.4,0.4c0.4,0.3,0.7,0.7,0.9,1.2c0.2,0.5,0.3,1.1,0.3,1.8s-0.1,1.3-0.3,1.8s-0.5,0.9-0.9,1.2s-0.9,0.4-1.4,0.4
		c-0.4,0-0.7-0.1-1-0.2c-0.3-0.1-0.5-0.3-0.6-0.5s-0.3-0.4-0.4-0.6h-0.1v3.7L211.8,112.9L211.8,112.9z M212.6,107.2
		c0,0.5,0.1,1,0.2,1.4s0.4,0.7,0.7,1s0.7,0.3,1.1,0.3s0.8-0.1,1.1-0.4s0.5-0.6,0.7-1c0.2-0.4,0.2-0.9,0.2-1.4s-0.1-1-0.2-1.4
		s-0.4-0.7-0.7-1s-0.7-0.4-1.1-0.4s-0.8,0.1-1.1,0.3c-0.3,0.2-0.5,0.5-0.7,0.9C212.7,106.2,212.6,106.6,212.6,107.2L212.6,107.2z"/>
	<path class="st1" d="M221.4,110.6c-0.6,0-1.1-0.1-1.6-0.4s-0.8-0.7-1-1.2s-0.4-1.1-0.4-1.8s0.1-1.2,0.4-1.8s0.6-0.9,1-1.2
		s0.9-0.4,1.5-0.4c0.4,0,0.7,0.1,1,0.2c0.3,0.1,0.6,0.3,0.9,0.6c0.3,0.3,0.5,0.6,0.6,1s0.2,0.9,0.2,1.4v0.4h-4.9
		c0,0.5,0.1,0.9,0.3,1.3c0.2,0.4,0.4,0.7,0.8,0.9s0.7,0.3,1.2,0.3c0.3,0,0.6-0.1,0.8-0.1s0.4-0.2,0.6-0.4c0.2-0.2,0.3-0.3,0.4-0.5
		l0.7,0.2c-0.1,0.3-0.3,0.5-0.5,0.8c-0.2,0.2-0.5,0.4-0.8,0.6S221.8,110.6,221.4,110.6L221.4,110.6z M219.2,106.7h4.1
		c0-0.4-0.1-0.8-0.2-1.1c-0.2-0.3-0.4-0.6-0.7-0.8c-0.3-0.2-0.6-0.3-1-0.3c-0.4,0-0.8,0.1-1.1,0.3s-0.6,0.5-0.7,0.9
		C219.3,106,219.2,106.4,219.2,106.7z"/>
	<path class="st1" d="M225.4,110.4v-8.7h0.8v5.3h0.1l3.1-3.1h1l-2.8,2.8l3,3.7h-1l-2.6-3.2l-0.8,0.7v2.5H225.4L225.4,110.4z"/>
	<path class="st1" d="M234.2,103.9v0.7h-1.4v4.2c0,0.3,0.1,0.5,0.1,0.6s0.2,0.3,0.4,0.3c0.1,0.1,0.3,0.1,0.5,0.1c0.1,0,0.2,0,0.2,0
		c0.1,0,0.1,0,0.2,0l0.2,0.7c-0.1,0-0.2,0.1-0.3,0.1c-0.1,0-0.2,0-0.4,0c-0.3,0-0.6-0.1-0.8-0.2c-0.3-0.1-0.5-0.3-0.6-0.6
		c-0.2-0.2-0.2-0.5-0.2-0.9v-4.3h-1v-0.7h1v-1.6h0.8v1.6L234.2,103.9L234.2,103.9z"/>
	<path class="st1" d="M235.5,110.4v-6.6h0.7v1h0.1c0.1-0.3,0.4-0.6,0.7-0.8c0.3-0.2,0.7-0.3,1.1-0.3c0.1,0,0.1,0,0.2,0s0.1,0,0.2,0
		v0.8c0,0-0.1,0-0.2,0c-0.1,0-0.2,0-0.3,0c-0.3,0-0.6,0.1-0.9,0.2s-0.5,0.3-0.6,0.6c-0.1,0.2-0.2,0.5-0.2,0.9v4.2L235.5,110.4
		L235.5,110.4z"/>
	<path class="st1" d="M241.9,110.6c-0.6,0-1.1-0.1-1.5-0.4s-0.8-0.7-1-1.2c-0.2-0.5-0.4-1.1-0.4-1.8s0.1-1.3,0.4-1.8s0.6-0.9,1-1.2
		c0.4-0.3,0.9-0.4,1.5-0.4s1.1,0.1,1.5,0.4c0.4,0.3,0.8,0.7,1,1.2s0.4,1.1,0.4,1.8s-0.1,1.2-0.4,1.8c-0.2,0.5-0.6,0.9-1,1.2
		C242.9,110.4,242.4,110.6,241.9,110.6z M241.9,109.9c0.4,0,0.8-0.1,1.1-0.4s0.6-0.6,0.7-1c0.2-0.4,0.2-0.8,0.2-1.3
		s-0.1-0.9-0.2-1.3c-0.2-0.4-0.4-0.7-0.7-1s-0.7-0.4-1.1-0.4s-0.8,0.1-1.1,0.4c-0.3,0.2-0.6,0.6-0.7,1c-0.2,0.4-0.2,0.9-0.2,1.3
		s0.1,0.9,0.2,1.3c0.2,0.4,0.4,0.7,0.7,1S241.4,109.9,241.9,109.9L241.9,109.9z"/>
	<path class="st1" d="M250.4,105.3l-0.7,0.2c-0.1-0.2-0.2-0.4-0.3-0.5s-0.3-0.3-0.5-0.4s-0.4-0.1-0.7-0.1c-0.4,0-0.8,0.1-1.1,0.3
		s-0.4,0.5-0.4,0.8c0,0.3,0.1,0.5,0.3,0.7s0.5,0.3,0.9,0.4l1,0.2c0.6,0.1,1,0.3,1.2,0.6c0.3,0.3,0.4,0.7,0.4,1.1
		c0,0.4-0.1,0.7-0.3,1c-0.2,0.3-0.5,0.5-0.9,0.7c-0.4,0.2-0.8,0.2-1.3,0.2c-0.6,0-1.2-0.1-1.6-0.4c-0.4-0.3-0.7-0.7-0.8-1.2l0.7-0.2
		c0.1,0.4,0.3,0.7,0.6,0.9s0.6,0.3,1.1,0.3c0.5,0,0.9-0.1,1.2-0.3c0.3-0.2,0.4-0.5,0.4-0.8c0-0.3-0.1-0.5-0.3-0.7
		c-0.2-0.2-0.4-0.3-0.8-0.4l-1.1-0.3c-0.6-0.1-1-0.3-1.3-0.7s-0.4-0.7-0.4-1.1c0-0.4,0.1-0.7,0.3-0.9s0.5-0.5,0.8-0.7
		s0.7-0.2,1.2-0.2c0.6,0,1.1,0.1,1.4,0.4C249.9,104.5,250.2,104.8,250.4,105.3L250.4,105.3z"/>
	<path class="st1" d="M251.8,110.4v-8.7h0.8v5.3h0.1l3.1-3.1h1l-2.8,2.8l3,3.7h-1l-2.6-3.2l-0.8,0.7v2.5H251.8L251.8,110.4z"/>
	<path class="st1" d="M260,110.6c-0.6,0-1.1-0.1-1.5-0.4s-0.8-0.7-1-1.2c-0.2-0.5-0.4-1.1-0.4-1.8s0.1-1.3,0.4-1.8s0.6-0.9,1-1.2
		c0.4-0.3,0.9-0.4,1.5-0.4s1.1,0.1,1.5,0.4c0.4,0.3,0.8,0.7,1,1.2s0.4,1.1,0.4,1.8s-0.1,1.2-0.4,1.8c-0.2,0.5-0.6,0.9-1,1.2
		C261,110.4,260.5,110.6,260,110.6z M260,109.9c0.5,0,0.8-0.1,1.1-0.4s0.5-0.6,0.7-1c0.2-0.4,0.2-0.8,0.2-1.3s-0.1-0.9-0.2-1.3
		c-0.2-0.4-0.4-0.7-0.7-1s-0.7-0.4-1.1-0.4s-0.8,0.1-1.1,0.4c-0.3,0.2-0.6,0.6-0.7,1c-0.2,0.4-0.2,0.9-0.2,1.3s0.1,0.9,0.2,1.3
		c0.2,0.4,0.4,0.7,0.7,1S259.5,109.9,260,109.9L260,109.9z"/>
	<path class="st1" d="M264.2,112.9v-9h0.7v1.2h0.1c0.1-0.2,0.2-0.4,0.4-0.6s0.4-0.4,0.6-0.5s0.6-0.2,1-0.2c0.5,0,1,0.1,1.4,0.4
		c0.4,0.3,0.7,0.7,1,1.2c0.2,0.5,0.3,1.1,0.3,1.8s-0.1,1.3-0.3,1.8s-0.5,0.9-1,1.2c-0.4,0.3-0.9,0.4-1.4,0.4c-0.4,0-0.7-0.1-1-0.2
		c-0.3-0.1-0.5-0.3-0.6-0.5s-0.3-0.4-0.4-0.6H265v3.7L264.2,112.9L264.2,112.9z M265,107.2c0,0.5,0.1,1,0.2,1.4
		c0.2,0.4,0.4,0.7,0.7,1s0.7,0.3,1.1,0.3s0.8-0.1,1.1-0.4s0.5-0.6,0.7-1c0.2-0.4,0.2-0.9,0.2-1.4s-0.1-1-0.2-1.4
		c-0.2-0.4-0.4-0.7-0.7-1s-0.7-0.4-1.1-0.4s-0.8,0.1-1.1,0.3c-0.3,0.2-0.5,0.5-0.7,0.9C265,106.2,265,106.6,265,107.2L265,107.2z"/>
	<path class="st1" d="M271.5,102.8c-0.2,0-0.3-0.1-0.4-0.2s-0.2-0.2-0.2-0.4s0.1-0.3,0.2-0.4c0.1-0.1,0.2-0.2,0.4-0.2
		s0.3,0.1,0.4,0.2s0.2,0.2,0.2,0.4s-0.1,0.3-0.2,0.4C271.8,102.7,271.6,102.8,271.5,102.8z M271.1,110.4v-6.6h0.8v6.6H271.1z"/>
	<path class="st1" d="M276.1,110.6c-0.6,0-1.1-0.1-1.6-0.4s-0.8-0.7-1-1.2s-0.4-1.1-0.4-1.8s0.1-1.2,0.4-1.8s0.6-0.9,1-1.2
		s0.9-0.4,1.5-0.4c0.4,0,0.7,0.1,1,0.2c0.3,0.1,0.6,0.3,0.9,0.6s0.5,0.6,0.6,1s0.2,0.9,0.2,1.4v0.4h-4.9c0,0.5,0.1,0.9,0.3,1.3
		c0.2,0.4,0.4,0.7,0.8,0.9c0.3,0.2,0.7,0.3,1.2,0.3c0.3,0,0.6-0.1,0.8-0.1s0.4-0.2,0.6-0.4c0.2-0.2,0.3-0.3,0.4-0.5l0.7,0.2
		c-0.1,0.3-0.3,0.5-0.5,0.8c-0.2,0.2-0.5,0.4-0.8,0.6C277,110.5,276.6,110.6,276.1,110.6L276.1,110.6z M273.9,106.7h4.1
		c0-0.4-0.1-0.8-0.2-1.1s-0.4-0.6-0.7-0.8s-0.6-0.3-1-0.3c-0.4,0-0.8,0.1-1.1,0.3s-0.6,0.5-0.7,0.9C274.1,106,274,106.4,273.9,106.7
		L273.9,106.7z"/>
	<path class="st1" d="M284.4,98.9v14.3h-0.7V98.9H284.4z"/>
	<path class="st1" d="M289.9,110.4v-8.7h5v0.7h-4.2v3.3h3.9v0.7h-3.9v4L289.9,110.4L289.9,110.4z"/>
	<path class="st1" d="M296.1,110.4v-6.6h0.7v1h0.1c0.1-0.3,0.4-0.6,0.7-0.8c0.3-0.2,0.7-0.3,1.1-0.3c0.1,0,0.1,0,0.2,0s0.1,0,0.2,0
		v0.8c0,0-0.1,0-0.2,0c-0.1,0-0.2,0-0.3,0c-0.3,0-0.6,0.1-0.9,0.2s-0.5,0.3-0.6,0.6c-0.1,0.2-0.2,0.5-0.2,0.9v4.2L296.1,110.4
		L296.1,110.4z"/>
	<path class="st1" d="M301.8,110.6c-0.4,0-0.8-0.1-1.1-0.2c-0.3-0.2-0.6-0.4-0.8-0.7s-0.3-0.7-0.3-1.1c0-0.3,0.1-0.6,0.2-0.8
		s0.3-0.4,0.5-0.5s0.5-0.2,0.8-0.3s0.6-0.2,1-0.2c0.4-0.1,0.7-0.1,0.9-0.1c0.2,0,0.5-0.1,0.6-0.2c0.1-0.1,0.2-0.2,0.2-0.4v-0.2
		c0-0.4-0.1-0.8-0.4-1.1c-0.3-0.3-0.6-0.4-1.1-0.4s-0.9,0.1-1.1,0.3c-0.3,0.2-0.5,0.4-0.6,0.7l-0.7-0.3c0.1-0.4,0.4-0.6,0.6-0.9
		c0.3-0.2,0.5-0.4,0.9-0.5c0.3-0.1,0.6-0.1,1-0.1c0.2,0,0.5,0,0.8,0.1s0.5,0.2,0.8,0.3c0.2,0.2,0.4,0.4,0.6,0.7
		c0.1,0.3,0.2,0.7,0.2,1.1v4.4h-0.8v-1h0c-0.1,0.2-0.2,0.4-0.4,0.6s-0.4,0.3-0.7,0.4C302.5,110.5,302.2,110.6,301.8,110.6
		L301.8,110.6z M301.9,109.9c0.4,0,0.8-0.1,1-0.3c0.3-0.2,0.5-0.4,0.7-0.7s0.2-0.6,0.2-1V107c-0.1,0.1-0.1,0.1-0.3,0.1
		s-0.3,0.1-0.5,0.1c-0.2,0-0.3,0.1-0.5,0.1c-0.2,0-0.3,0-0.5,0.1c-0.4,0.1-0.7,0.1-1,0.2c-0.3,0.1-0.5,0.2-0.6,0.4s-0.2,0.4-0.2,0.7
		c0,0.4,0.1,0.7,0.4,0.9C301.1,109.8,301.5,109.9,301.9,109.9L301.9,109.9z"/>
	<path class="st1" d="M307.1,106.3v4.1h-0.8v-6.6h0.7v1h0.1c0.1-0.3,0.4-0.6,0.7-0.8c0.3-0.2,0.7-0.3,1.2-0.3c0.4,0,0.8,0.1,1.2,0.3
		c0.3,0.2,0.6,0.4,0.8,0.8c0.2,0.3,0.3,0.8,0.3,1.3v4.2h-0.8v-4.2c0-0.5-0.1-1-0.5-1.3c-0.3-0.3-0.7-0.5-1.2-0.5
		c-0.3,0-0.6,0.1-0.9,0.2c-0.3,0.2-0.5,0.4-0.6,0.6C307.2,105.6,307.1,106,307.1,106.3L307.1,106.3z"/>
	<path class="st1" d="M313,110.4v-8.7h0.8v5.3h0.1l3.1-3.1h1l-2.8,2.8l3,3.7h-1l-2.6-3.2l-0.8,0.7v2.5H313L313,110.4z"/>
	<path class="st1" d="M321.9,103.9v0.7h-1.5v5.9h-0.8v-5.9h-1v-0.7h1v-1c0-0.3,0.1-0.7,0.2-0.9s0.4-0.4,0.6-0.6
		c0.3-0.1,0.5-0.2,0.8-0.2c0.2,0,0.4,0,0.5,0.1s0.2,0.1,0.3,0.1l-0.2,0.7c-0.1,0-0.1,0-0.2-0.1s-0.2,0-0.3,0c-0.3,0-0.6,0.1-0.8,0.3
		c-0.2,0.2-0.3,0.4-0.3,0.8v0.8L321.9,103.9L321.9,103.9z"/>
	<path class="st1" d="M327.2,107.9v-4h0.8v6.6h-0.8v-1.1h-0.1c-0.1,0.3-0.4,0.6-0.7,0.8c-0.3,0.2-0.7,0.3-1.2,0.3
		c-0.4,0-0.8-0.1-1.1-0.3c-0.3-0.2-0.6-0.4-0.8-0.8s-0.3-0.8-0.3-1.3v-4.2h0.8v4.2c0,0.5,0.1,0.9,0.5,1.2c0.3,0.3,0.7,0.5,1.2,0.5
		c0.3,0,0.6-0.1,0.9-0.2c0.3-0.1,0.5-0.3,0.7-0.6C327.1,108.7,327.2,108.3,327.2,107.9L327.2,107.9z"/>
	<path class="st1" d="M329.6,110.4v-6.6h0.7v1h0.1c0.1-0.3,0.4-0.6,0.7-0.8c0.3-0.2,0.7-0.3,1.1-0.3c0.1,0,0.1,0,0.2,0s0.1,0,0.2,0
		v0.8c0,0-0.1,0-0.2,0c-0.1,0-0.2,0-0.3,0c-0.3,0-0.6,0.1-0.9,0.2s-0.5,0.3-0.6,0.6c-0.1,0.2-0.2,0.5-0.2,0.9v4.2L329.6,110.4
		L329.6,110.4z"/>
	<path class="st1" d="M336.5,103.9v0.7h-1.4v4.2c0,0.3,0,0.5,0.1,0.6s0.2,0.3,0.4,0.3c0.1,0.1,0.3,0.1,0.5,0.1c0.1,0,0.2,0,0.2,0
		c0.1,0,0.1,0,0.2,0l0.2,0.7c-0.1,0-0.2,0.1-0.3,0.1c-0.1,0-0.2,0-0.4,0c-0.3,0-0.5-0.1-0.8-0.2c-0.3-0.1-0.5-0.3-0.6-0.6
		c-0.2-0.2-0.2-0.5-0.2-0.9v-4.3h-1v-0.7h1v-1.6h0.8v1.6L336.5,103.9L336.5,103.9z"/>
	<path class="st1" d="M342.8,110.6c-0.4,0-0.8-0.1-1.1-0.2c-0.3-0.2-0.6-0.4-0.8-0.7s-0.3-0.7-0.3-1.1c0-0.3,0.1-0.6,0.2-0.8
		s0.3-0.4,0.5-0.5s0.5-0.2,0.8-0.3s0.6-0.2,1-0.2c0.4-0.1,0.7-0.1,0.9-0.1c0.2,0,0.5-0.1,0.6-0.2c0.1-0.1,0.2-0.2,0.2-0.4v-0.2
		c0-0.4-0.1-0.8-0.4-1.1c-0.3-0.3-0.6-0.4-1.1-0.4s-0.9,0.1-1.1,0.3c-0.3,0.2-0.5,0.4-0.6,0.7l-0.7-0.3c0.1-0.4,0.4-0.6,0.6-0.9
		c0.3-0.2,0.5-0.4,0.9-0.5c0.3-0.1,0.6-0.1,1-0.1c0.2,0,0.5,0,0.8,0.1s0.5,0.2,0.8,0.3c0.2,0.2,0.4,0.4,0.6,0.7
		c0.1,0.3,0.2,0.7,0.2,1.1v4.4h-0.8v-1h0c-0.1,0.2-0.2,0.4-0.4,0.6s-0.4,0.3-0.7,0.4C343.5,110.5,343.1,110.6,342.8,110.6
		L342.8,110.6z M342.9,109.9c0.4,0,0.8-0.1,1-0.3c0.3-0.2,0.5-0.4,0.7-0.7s0.2-0.6,0.2-1V107c-0.1,0.1-0.1,0.1-0.3,0.1
		s-0.3,0.1-0.5,0.1c-0.2,0-0.3,0.1-0.5,0.1c-0.2,0-0.3,0-0.5,0.1c-0.4,0.1-0.7,0.1-1,0.2c-0.3,0.1-0.5,0.2-0.6,0.4s-0.2,0.4-0.2,0.7
		c0,0.4,0.1,0.7,0.4,0.9C342.1,109.8,342.4,109.9,342.9,109.9L342.9,109.9z"/>
	<path class="st1" d="M347.3,110.4v-6.6h0.7v1h0.1c0.1-0.3,0.4-0.6,0.6-0.8s0.7-0.3,1.1-0.3c0.5,0,0.8,0.1,1.1,0.3
		c0.3,0.2,0.5,0.5,0.6,0.9h0.1c0.1-0.4,0.4-0.7,0.7-0.9c0.3-0.2,0.7-0.3,1.2-0.3c0.6,0,1.1,0.2,1.4,0.6s0.5,0.9,0.5,1.7v4.4h-0.8
		V106c0-0.5-0.1-0.9-0.4-1.2c-0.3-0.3-0.6-0.4-1-0.4c-0.5,0-0.9,0.2-1.1,0.5s-0.4,0.7-0.4,1.2v4.3H351V106c0-0.4-0.1-0.8-0.4-1.1
		s-0.6-0.4-1-0.4c-0.3,0-0.6,0.1-0.8,0.2s-0.4,0.3-0.6,0.6s-0.2,0.6-0.2,0.9v4.2L347.3,110.4L347.3,110.4z"/>
	<path class="st1" d="M360.5,101.7h0.9l3.2,7.6h0.1l3.2-7.6h0.9v8.7H368v-7H368l-2.9,7h-0.7l-2.9-7h-0.1v7h-0.8L360.5,101.7
		L360.5,101.7z"/>
	<path class="st1" d="M372.5,110.6c-0.4,0-0.8-0.1-1.1-0.2c-0.3-0.2-0.6-0.4-0.8-0.7s-0.3-0.7-0.3-1.1c0-0.3,0.1-0.6,0.2-0.8
		s0.3-0.4,0.5-0.5s0.5-0.2,0.8-0.3s0.6-0.2,1-0.2c0.4-0.1,0.7-0.1,0.9-0.1c0.2,0,0.5-0.1,0.6-0.2c0.1-0.1,0.2-0.2,0.2-0.4v-0.2
		c0-0.4-0.1-0.8-0.4-1.1c-0.3-0.3-0.6-0.4-1.1-0.4s-0.9,0.1-1.1,0.3c-0.3,0.2-0.5,0.4-0.6,0.7l-0.7-0.3c0.1-0.4,0.4-0.6,0.6-0.9
		c0.3-0.2,0.5-0.4,0.9-0.5c0.3-0.1,0.6-0.1,1-0.1c0.2,0,0.5,0,0.8,0.1s0.5,0.2,0.8,0.3c0.2,0.2,0.4,0.4,0.6,0.7
		c0.1,0.3,0.2,0.7,0.2,1.1v4.4h-0.8v-1h0c-0.1,0.2-0.2,0.4-0.4,0.6s-0.4,0.3-0.7,0.4C373.1,110.5,372.8,110.6,372.5,110.6
		L372.5,110.6z M372.5,109.9c0.4,0,0.8-0.1,1-0.3c0.3-0.2,0.5-0.4,0.7-0.7s0.2-0.6,0.2-1V107c-0.1,0.1-0.1,0.1-0.3,0.1
		s-0.3,0.1-0.5,0.1c-0.2,0-0.3,0.1-0.5,0.1c-0.2,0-0.3,0-0.5,0.1c-0.4,0.1-0.7,0.1-1,0.2c-0.3,0.1-0.5,0.2-0.6,0.4s-0.2,0.4-0.2,0.7
		c0,0.4,0.1,0.7,0.4,0.9C371.8,109.8,372.1,109.9,372.5,109.9L372.5,109.9z"/>
	<path class="st1" d="M377.3,102.8c-0.2,0-0.3-0.1-0.4-0.2s-0.2-0.2-0.2-0.4s0.1-0.3,0.2-0.4c0.1-0.1,0.2-0.2,0.4-0.2
		s0.3,0.1,0.4,0.2s0.2,0.2,0.2,0.4s-0.1,0.3-0.2,0.4C377.6,102.7,377.5,102.8,377.3,102.8z M376.9,110.4v-6.6h0.8v6.6H376.9z"/>
	<path class="st1" d="M380.2,106.3v4.1h-0.8v-6.6h0.7v1h0.1c0.1-0.3,0.4-0.6,0.7-0.8c0.3-0.2,0.7-0.3,1.2-0.3c0.4,0,0.8,0.1,1.2,0.3
		c0.3,0.2,0.6,0.4,0.8,0.8c0.2,0.3,0.3,0.8,0.3,1.3v4.2h-0.8v-4.2c0-0.5-0.1-1-0.5-1.3c-0.3-0.3-0.7-0.5-1.2-0.5
		c-0.3,0-0.6,0.1-0.9,0.2c-0.3,0.2-0.5,0.4-0.6,0.6C380.2,105.6,380.2,106,380.2,106.3L380.2,106.3z"/>
</g>
</svg>
