<?xml version="1.0" encoding="UTF-8"?><svg id="Ebene_2" xmlns="http://www.w3.org/2000/svg" viewBox="0 0 498.73 135.05"><defs><style>.cls-1{fill:#5ea3da;stroke-width:0px;}</style></defs><g id="Ebene_1-2"><path class="cls-1" d="M1.35,96.73H0V16.77h48.65c-.04,2.12-.09,4.45-.12,6.76l-.12,7.2c-.05,3.03-.1,6.08-.16,8.86-.07,3.8-.15,7.4-.21,10.63-.07,3.23-.15,6.11-.22,8.73-.07,2.61-.14,4.88-.21,6.96-.07,2.08-.15,3.86-.21,5.5-.07,1.64-.15,3.04-.22,4.34-.07,1.29-.14,2.41-.21,3.45-.07,1.03-.14,1.92-.21,2.75-.07.83-.14,1.55-.21,2.22-.07.66-.14,1.25-.21,1.8-.07.54-.14,1.02-.21,1.47-.07.44-.14.84-.21,1.21-.07.37-.13.69-.2,1-.07.3-.13.57-.19.82-.07.26-.13.49-.19.69-.07.21-.13.4-.19.58-.06.17-.12.33-.18.48-.06.15-.12.28-.18.4-.05.12-.11.23-.16.33-.05.1-.1.19-.17.3-.05.09-.1.16-.14.23-.05.07-.1.14-.14.19-.05.07-.1.13-.15.18-.05.06-.1.12-.13.15l-.13.13s-.1.09-.15.12c-.04.04-.09.07-.15.12-.04.02-.07.05-.11.07-.05.04-.1.07-.12.08l-.19.11s-.07.04-.12.07c-.04.02-.07.04-.11.05l-.94.34s-.06.02-.07.02l-.11.03s-.08.02-.1.02l-1.3.2s-.1.01-.16.02h-.07l-.33.02h-.55s-.49,0-.49,0h-.07l-.46-.04s-.06,0-.09-.01l-.31-.04s-.05,0-.07,0h-.07s-.05-.02-.07-.02l-.32-.06-.95-.34s-.04-.02-.07-.04c-.02-.02-.05-.03-.07-.04-.02-.01-.05-.03-.07-.05-.03-.02-.06-.04-.12-.09-.03-.02-.06-.05-.1-.08l-.12-.12s-.06-.07-.1-.12c-.04-.05-.09-.1-.13-.16-.04-.06-.09-.12-.13-.21-.05-.07-.09-.15-.13-.22-.05-.1-.11-.22-.16-.32-.05-.13-.12-.27-.17-.42-.06-.16-.12-.33-.18-.51-.07-.2-.13-.41-.19-.66-.07-.25-.13-.52-.19-.83-.07-.32-.13-.65-.2-1.04-.07-.4-.13-.82-.2-1.32-.07-.5-.14-1.04-.21-1.67-.07-.63-.14-1.32-.21-2.13-.07-.81-.15-1.69-.21-2.71-.07-1.03-.15-2.16-.21-3.46-.07-1.3-.15-2.73-.22-4.34-.07-1.61-.14-3.4-.21-5.3-.05-1.25-.09-2.62-.14-3.99l-.15-4.1c-.05-1.44-.1-2.89-.15-4.13l-.02-.43c-.07-1.74-.13-3.39-.2-4.44-.12-1.84-.25-3.92-2.36-3.85-2.07.02-2.2,1.97-2.32,3.86-.07,1.05-.13,2.71-.2,4.46l-.02.41c-.05,1.27-.1,2.75-.15,4.21l-.13,3.63c-.05,1.5-.1,3.02-.16,4.4-.07,1.89-.14,3.7-.21,5.31-.07,1.61-.14,3.05-.21,4.35-.07,1.3-.15,2.44-.21,3.46-.07,1.03-.15,1.92-.21,2.73-.07.81-.14,1.5-.21,2.14-.07.63-.14,1.18-.21,1.68-.07.5-.13.93-.21,1.33-.07.4-.13.74-.2,1.05-.06.31-.13.59-.19.84-.07.25-.13.47-.19.68-.06.19-.12.37-.18.52-.05.16-.12.3-.18.43-.05.12-.1.23-.15.32-.04.09-.09.18-.15.29-.05.07-.09.15-.13.19-.04.07-.09.12-.14.19-.05.06-.09.11-.12.15-.04.05-.09.09-.12.12-.04.04-.09.08-.12.11-.04.03-.07.06-.13.1-.04.03-.07.05-.12.09-.04.02-.07.04-.1.07l-.18.1-.66.28s-.06.02-.08.03l-2.7.52s-.05,0-.07,0l-.17.02c-.06,0-.12.01-.18.02-.08.01-.16.02-.25.02l-1.58.13s-.08,0-.12,0h-.14c-.07.01-.15.02-.23.02-.07,0-.14,0-.18,0l-.4.02h-.07l-.81.04s-.06,0-.09,0h-.32s-.07.01-.07.01l-1.01.04c-.09,0-.18,0-.29.01h-.07s-.07,0-.09,0h-.23c-.08,0-.16,0-.23.01h-.34s-.05,0-.07.01l-1,.02h-.46s-.22.01-.22.01h-.38s-.07,0-.09.01l-1.44.02h-.43s-.07,0-.07,0h-.58s-.09,0-.09,0h-.13s-.26,0-.26,0h-.6s-.25.01-.25.01h-.83s-.07.01-.11.01h-1.18s-.07.01-.07.01h-.79s-.07,0-.07,0h-1c-.09,0-.18,0-.22.01h-.65s-.05,0-.09,0Z"/><path class="cls-1" d="M89.07,16.77v79.77c-.09,0-.18,0-.25-.01l-.62-.02h-.08l-.32-.02h-.4s-.1-.02-.13-.02l-.77-.04h-.07l-.35-.02c-.07,0-.15-.01-.23-.01-.07,0-.15-.01-.23-.02h-.14s-.09-.01-.13-.01l-1.83-.15c-.06,0-.12-.01-.18-.02l-.16-.02s-.1-.01-.12-.01h-.09s-.07-.02-.07-.02l-.93-.13-1.58-.38s-.05-.01-.07-.02l-.43-.17s-.09-.04-.13-.06c-.04-.02-.07-.04-.1-.05l-.19-.1s-.05-.04-.12-.08c-.03-.02-.05-.04-.11-.08-.04-.02-.07-.05-.1-.07-.04-.04-.09-.08-.12-.12-.05-.04-.09-.09-.12-.12-.04-.05-.09-.1-.16-.19-.04-.04-.07-.1-.12-.15-.04-.07-.09-.13-.15-.24-.04-.08-.09-.16-.13-.24-.05-.1-.1-.21-.16-.34-.06-.13-.12-.27-.17-.42-.06-.17-.12-.35-.18-.53-.07-.21-.13-.42-.19-.68-.07-.25-.13-.52-.19-.82-.07-.32-.13-.66-.2-1.07-.07-.4-.14-.83-.21-1.33-.07-.51-.14-1.05-.21-1.68-.07-.65-.14-1.34-.21-2.14-.07-.81-.14-1.7-.21-2.73-.07-1.03-.14-2.16-.21-3.46-.07-1.3-.14-2.75-.21-4.35-.07-1.61-.15-3.42-.21-5.31-.05-1.33-.1-2.77-.15-4.21l-.14-4.04c-.05-1.39-.09-2.79-.14-3.99v-.26c-.08-1.74-.15-3.53-.22-4.63-.12-1.89-.25-3.84-2.27-3.85-2.16-.06-2.3,2.01-2.41,3.85-.07,1.11-.15,2.95-.21,4.72v.15c-.05,1.24-.1,2.69-.15,4.13l-.15,4.29c-.04,1.31-.09,2.61-.13,3.81-.07,1.89-.15,3.69-.21,5.3-.07,1.61-.15,3.04-.22,4.35-.07,1.29-.14,2.42-.21,3.45-.07,1.02-.14,1.91-.21,2.71-.07.8-.15,1.49-.21,2.13-.07.63-.14,1.17-.21,1.67-.07.49-.14.92-.21,1.32-.07.39-.13.73-.2,1.04-.06.3-.13.58-.19.84-.06.24-.13.45-.19.66-.05.18-.12.35-.18.52-.05.15-.11.27-.16.38-.05.12-.1.23-.17.35-.04.09-.09.16-.13.24-.04.07-.09.13-.13.19-.04.05-.09.11-.14.18-.03.04-.06.07-.12.13-.02.03-.05.05-.1.1-.03.02-.06.05-.12.1-.03.02-.06.04-.09.06-.02.02-.05.04-.08.05-.02.02-.05.04-.08.05-.02.02-.04.03-.09.05l-.11.05-1.14.33s-.07.01-.07.01h-.05s-.05.02-.07.02l-.32.04s-.06.01-.09.01l-.45.04h-.56s-.49,0-.49,0h-.07l-.32-.02s-.09,0-.11,0c-.04,0-.09,0-.13-.01l-1.34-.21s-.07-.02-.09-.02l-.08-.02s-.05-.02-.07-.02l-.93-.33s-.09-.04-.13-.06c-.04-.02-.09-.05-.18-.1-.04-.02-.09-.05-.1-.05-.04-.03-.09-.06-.15-.1-.04-.03-.08-.05-.12-.09-.04-.03-.09-.07-.13-.11-.04-.04-.09-.07-.16-.14-.04-.04-.08-.08-.1-.1-.05-.05-.09-.1-.14-.15-.04-.06-.09-.12-.15-.19-.04-.05-.09-.11-.13-.18-.05-.07-.1-.16-.16-.26-.05-.09-.1-.18-.16-.29-.05-.1-.12-.21-.16-.32-.05-.13-.12-.26-.17-.4-.06-.15-.12-.31-.19-.49-.06-.18-.12-.36-.18-.57-.06-.21-.13-.44-.19-.68-.07-.26-.13-.53-.2-.85-.07-.3-.13-.63-.2-.99-.07-.37-.14-.77-.21-1.21-.07-.45-.14-.93-.21-1.47-.07-.54-.14-1.13-.21-1.8-.07-.67-.14-1.39-.21-2.21-.07-.83-.15-1.72-.21-2.76-.07-1.04-.15-2.15-.21-3.44-.07-1.3-.15-2.71-.22-4.34-.07-1.64-.14-3.43-.21-5.5-.07-2.08-.14-4.35-.21-6.96-.07-2.62-.15-5.5-.22-8.73-.07-3.23-.14-6.83-.21-10.63-.05-2.89-.11-6.05-.16-9.19l-.12-6.84c-.04-2.33-.08-4.66-.12-6.79h35.24Z"/><path class="cls-1" d="M86.72,100.72h.16c.07.01.15.01.25.02.07,0,.13,0,.2,0,.02,0,.07,0,.09,0h.41c.09.02.16.02.23.02h.32s.02,0,.02,0c.08,0,.16,0,.24.01h.21c.07.01.15.01.23.01v5.04H0v-4.85h1.22c.09,0,.17,0,.26-.01h1.68s.26-.01.26-.01h.61s.1,0,.1,0h1.2s.08-.01.08-.01c.06,0,.12,0,.18,0h.82s.07,0,.07,0h.79s.22-.01.22-.01c.09,0,.18,0,.26,0h.16c.1,0,.19,0,.27,0h.38s.23,0,.23,0c.09,0,.18,0,.22,0h.63s.07-.01.07-.01h.37c.09,0,.19,0,.3-.01h.55s.11-.01.13-.01h.32c.09,0,.17-.01.24-.01h.57s.08-.02.09-.02h.19c.07,0,.13,0,.24-.01h.33s.09,0,.12-.01h.2c.09,0,.18,0,.25-.01h.16s.07,0,.07,0c.08,0,.16,0,.18,0h.37c.08-.01.16-.02.3-.02h.36s.07-.02.08-.02c.09,0,.18,0,.2,0,.09,0,.17,0,.2-.01l.64-.03c.07,0,.15,0,.26-.01l.38-.02s.08,0,.12,0h.11s.05-.01.07-.01l.36-.02c.08,0,.16,0,.29-.02l1.29-.1s.05,0,.07,0l.22-.02s.06,0,.07,0h.08s.07-.01.11-.02l.36-.04s.05,0,.07,0l.9-.13c.1-.01.19-.02.26-.04l.2-.04s.07-.01.1-.02l.65-.13c.11-.02.21-.04.28-.06.1-.02.19-.05.25-.06l.24-.07s.1-.03.12-.04l.13-.04c.1-.03.19-.06.27-.09.1-.03.2-.06.33-.11l.24-.1s.07-.02.09-.03c.08-.04.15-.07.21-.09.09-.04.19-.09.34-.16.1-.05.19-.1.3-.16l.23-.13c.11-.06.22-.13.32-.2.1-.07.21-.15.3-.22.11-.08.21-.16.33-.26.1-.09.21-.18.34-.32.09-.09.18-.18.29-.3.1-.11.19-.22.28-.33.1-.12.2-.26.32-.42.1-.14.19-.29.27-.43.1-.16.19-.34.29-.53.09-.18.19-.37.28-.58.09-.2.17-.41.26-.65.09-.23.17-.47.26-.75.08-.26.16-.54.24-.86.07-.3.15-.63.23-1.02.08-.37.15-.76.23-1.21.08-.44.15-.92.23-1.47.02-.12.04-.25.05-.38.01.1.02.19.04.28.07.55.15,1.02.23,1.46.08.45.15.85.23,1.21.08.37.16.7.24,1,.08.32.16.59.24.85.09.27.17.52.26.75.09.23.18.43.27.65.09.2.18.38.27.57.1.18.19.36.28.5.1.16.21.32.31.46.1.14.2.27.29.38.12.13.23.26.32.35.11.12.22.22.32.32.12.1.23.2.31.26.1.08.19.15.34.26.11.07.22.15.33.21.1.07.21.13.32.19.01,0,.07.03.08.04.07.04.15.08.23.12.07.04.14.07.26.12.02.01.04.02.05.02.1.04.19.08.32.12.08.03.16.06.24.09.01,0,.06.02.07.02.08.02.16.05.19.06.09.03.18.05.3.09.01,0,.07.01.08.02.08.02.16.04.21.05l.26.05s.08.01.09.02c.07.01.15.02.24.04.09.02.17.03.26.04l.24.03c.08.01.16.02.24.02.06,0,.12.01.19.02,0,0,.07,0,.08.01h.19s.07.02.1.02h.18c.08.01.16.02.26.02h.52s.54,0,.54,0c.08,0,.15,0,.23,0h.21c.09-.02.19-.02.28-.04h.12c.05,0,.12-.01.17-.02l.62-.07s.07-.01.08-.01l1-.18s.07-.01.07-.02c.09-.01.16-.04.21-.04.09-.02.17-.04.26-.07.1-.02.18-.05.24-.07l.29-.09c.09-.02.18-.06.27-.09l.2-.07s.06-.02.09-.03c.09-.04.18-.07.26-.11s.18-.07.27-.12c.1-.05.21-.1.31-.15.1-.05.21-.11.27-.15.08-.04.16-.09.25-.15.02,0,.05-.03.07-.04.1-.06.19-.13.29-.19.1-.07.21-.15.3-.21.1-.08.2-.16.3-.25.1-.08.19-.16.27-.24.11-.1.21-.2.33-.33.09-.1.19-.2.29-.32.09-.11.18-.22.29-.36.1-.12.19-.25.3-.41.09-.14.18-.28.26-.41.09-.15.18-.32.27-.49.09-.16.18-.34.27-.54.09-.18.17-.38.26-.59.09-.21.16-.43.26-.68.08-.23.16-.47.24-.75.08-.26.15-.54.24-.85.07-.3.15-.63.23-.99.07-.35.15-.72.23-1.13.07-.41.15-.85.23-1.33.07-.49.15-1,.22-1.58.08-.57.15-1.19.23-1.89.07-.69.15-1.44.22-2.3.07-.85.15-1.77.21-2.82.01-.15.02-.3.03-.44.01.15.02.29.03.44.07,1.06.15,1.97.22,2.83.07.86.15,1.6.22,2.3.07.7.15,1.32.23,1.89.07.58.15,1.1.22,1.58.08.49.15.93.23,1.33.08.42.16.79.23,1.13.08.35.16.68.23.98.08.31.16.59.24.85.09.27.16.52.25.75.09.24.16.46.25.67.09.21.17.41.26.6.09.19.18.37.26.53.09.17.18.33.27.47.09.15.18.3.27.43.1.15.2.29.29.41.1.13.19.24.29.36.1.12.19.22.3.33.1.11.21.21.28.28.1.1.2.18.3.26.1.09.2.17.3.25s.21.15.3.21c.1.07.2.13.33.22.1.06.2.12.24.15.1.05.21.11.31.16.1.05.19.1.32.16.09.04.18.08.26.12.09.04.18.07.27.11.02.01.05.02.08.03l.2.07c.09.03.18.07.3.1l.23.07c.09.03.18.05.27.08.08.02.16.04.26.06.07.02.15.04.27.07l.26.05s.09.02.1.02l.65.11s.09.01.1.01l.61.07c.06,0,.14.01.19.01h.09c.1.02.19.02.32.03h.18c.08.01.16.02.26.02h.52s.55,0,.55,0c.08,0,.15,0,.23,0h.18s.07-.02.1-.02h.19s.07-.02.08-.02c.07,0,.13-.01.19-.02.07,0,.16-.01.29-.03l.18-.02c.09-.01.17-.02.27-.04.07-.01.14-.02.21-.04l.09-.02c.09-.02.18-.04.23-.05.1-.02.21-.05.34-.08.09-.02.18-.05.23-.07.09-.02.16-.04.24-.07,0,0,.05-.02.07-.02.09-.03.19-.07.27-.1.09-.03.18-.07.29-.11.02-.01.1-.04.12-.05.07-.04.15-.07.22-.1.07-.03.15-.07.23-.12,0,0,.06-.03.07-.04.1-.05.21-.12.32-.18.1-.07.21-.13.31-.2.01-.01.06-.04.07-.05.09-.07.18-.13.24-.18.12-.09.23-.19.33-.27.12-.1.23-.21.32-.31.12-.12.23-.24.33-.37.1-.12.2-.25.3-.39.1-.14.21-.29.3-.45.1-.16.2-.33.29-.51.1-.18.19-.36.29-.58.09-.21.18-.42.26-.65s.17-.47.26-.74c.08-.27.16-.54.24-.85s.15-.63.24-1.02c.08-.37.15-.75.23-1.2.07-.44.15-.91.23-1.46.01-.09.02-.19.04-.28.02.13.04.26.05.38.07.55.15,1.03.23,1.47.07.45.15.84.23,1.22s.16.71.23,1c.09.32.16.6.25.89.09.27.16.51.25.74.09.24.18.45.26.64.09.21.18.4.28.59.1.19.19.37.27.5.1.16.2.32.29.46.11.16.21.3.29.4.1.13.2.24.32.38.1.11.2.21.3.31.1.1.2.19.31.29.1.09.21.18.3.24.12.09.23.18.31.23.12.09.24.16.35.23l.26.15c.11.06.21.12.32.17.1.05.2.09.27.12.07.04.14.06.21.09l.37.15c.09.04.18.07.27.1.1.04.19.07.26.09l.21.06s.05.02.07.02l.23.05c.09.02.17.05.24.06.1.03.21.05.26.06l.7.15s.07.01.1.02l1.36.2s.09.01.12.01l.31.04s.07,0,.11.01h.08s.1.02.12.02l.17.02s.04,0,.07,0l1.34.11c.08,0,.16.01.28.02l.32.02s.05,0,.07,0h.11s.08.01.12.01l.41.02c.08,0,.16.01.24.01l.33.02"/><path class="cls-1" d="M112.08,106.23V16.77h27.56c5.68,0,10.55,1.17,14.61,3.49,4.06,2.33,7.19,5.52,9.37,9.57,2.18,4.05,3.28,8.66,3.28,13.85s-1.09,9.71-3.28,13.76c-2.18,4.05-5.31,7.24-9.37,9.59-4.06,2.34-8.92,3.52-14.57,3.52h-22.15v35.69h-5.46ZM117.54,65.47h22.01c4.6,0,8.53-.94,11.79-2.82,3.26-1.88,5.77-4.46,7.51-7.73,1.75-3.28,2.62-7.02,2.62-11.25s-.87-8.02-2.62-11.31c-1.75-3.29-4.26-5.87-7.53-7.73-3.28-1.86-7.21-2.8-11.81-2.8h-21.97v43.64Z"/><path class="cls-1" d="M179.55,106.23V16.77h27.56c5.68,0,10.55,1.17,14.61,3.49,4.06,2.33,7.19,5.52,9.37,9.57,2.18,4.05,3.28,8.66,3.28,13.85s-1.09,9.71-3.28,13.76c-2.18,4.05-5.31,7.24-9.37,9.59-4.06,2.34-8.92,3.52-14.57,3.52h-22.15v35.69h-5.46ZM185.01,65.47h22.01c4.6,0,8.53-.94,11.79-2.82,3.26-1.88,5.77-4.46,7.51-7.73s2.62-7.02,2.62-11.25-.87-8.02-2.62-11.31c-1.75-3.29-4.26-5.87-7.53-7.73-3.28-1.86-7.21-2.8-11.82-2.8h-21.97v43.64Z"/><path class="cls-1" d="M315.38,16.77v89.45h-5.33l-57.05-79.54h-.52v79.54h-5.46V16.77h5.37l57.05,79.63h.52V16.77h5.42Z"/><path class="cls-1" d="M334.46,16.77h5.94l34.46,81.59h.61l34.46-81.59h5.94v89.45h-5.24V29.74h-.52l-32.37,76.48h-5.15l-32.37-76.48h-.52v76.48h-5.24V16.77Z"/><path class="cls-1" d="M435,106.23V16.77h27.56c5.65,0,10.51,1.11,14.59,3.32,4.08,2.21,7.21,5.28,9.39,9.19,2.18,3.92,3.28,8.47,3.28,13.65s-1.09,9.63-3.28,13.52c-2.18,3.89-5.3,6.92-9.35,9.11-1.43.76-2.93,1.38-4.5,1.88l21.05,38.79h-6.29l-20.31-37.65c-1.46.17-2.97.26-4.54.26h-22.15v37.39h-5.46ZM440.46,63.73h22.01c4.6,0,8.53-.86,11.79-2.58,3.26-1.72,5.77-4.13,7.51-7.23s2.62-6.76,2.62-10.99-.87-7.96-2.62-11.12c-1.75-3.16-4.26-5.61-7.53-7.36-3.28-1.75-7.21-2.62-11.82-2.62h-21.97v41.89Z"/></g></svg>